<svg xmlns="http://www.w3.org/2000/svg" width="793" height="1323" viewBox="0 0 793 1323">
<g>
<path d="M 333.70 723.50 L 334.21 715.50 L 329.78 710.99 C332.44,713.45 333.51,713.89 334.18,713.22 C335.14,712.26 335.44,704.39 335.44,680.23 C335.43,647.64 335.17,644.04 330.29,609.50 C325.74,577.34 326.03,540.04 331.04,512.50 C333.52,498.89 336.87,485.52 341.18,472.23 C341.12,472.61 341.16,472.80 341.28,472.90 C341.41,473.02 341.65,473.01 341.97,473.00 C342.06,473.00 342.15,473.00 342.25,473.00 C342.94,473.00 346.50,480.54 350.16,489.75 C355.83,504.00 358.66,512.02 365.97,534.50 C367.93,540.51 375.18,569.74 377.01,579.00 C382.96,609.09 385.24,631.75 385.23,660.50 C385.21,680.89 383.62,703.24 381.40,714.25 C381.04,716.03 381.26,717.00 382.04,717.00 C382.54,717.00 385.29,719.22 388.77,722.38 C382.15,716.43 380.00,716.06 380.00,720.22 C380.00,721.47 378.87,727.14 377.50,732.81 C376.12,738.49 375.00,743.36 375.00,743.63 C375.00,744.04 378.59,745.90 383.55,748.22 C377.70,745.54 374.71,744.59 374.45,745.30 C374.20,745.96 373.12,749.55 372.06,753.27 L 370.13 760.04 L 373.47 761.72 C372.30,761.23 371.42,761.05 370.69,761.29 C368.67,761.96 367.71,765.88 364.47,775.50 C360.55,787.10 353.22,803.82 349.16,810.43 C347.83,812.59 346.12,815.74 345.35,817.43 C343.93,820.55 332.85,836.52 325.39,846.21 C314.55,860.27 294.74,878.88 276.37,892.26 C271.35,895.92 268.00,897.01 268.00,894.99 C268.00,894.44 270.54,890.05 273.65,885.24 C280.40,874.80 292.40,853.06 296.42,844.00 C298.00,840.42 300.76,834.35 302.54,830.50 C304.33,826.65 307.89,818.10 310.46,811.50 C313.04,804.90 315.58,798.42 316.12,797.09 C318.16,792.08 323.21,776.34 324.01,772.50 C324.47,770.30 325.79,765.12 326.94,761.00 C328.92,753.95 333.08,734.55 332.93,733.14 C332.89,732.79 332.54,733.32 332.14,734.33 C331.84,735.08 330.94,734.79 328.45,732.57 C330.07,733.90 331.12,734.39 331.83,734.08 C333.23,733.47 333.30,729.82 333.70,723.50 ZM 297.19 386.03 C292.06,394.99 287.72,403.49 284.45,411.09 C281.19,418.66 272.49,442.24 271.56,446.00 C271.45,446.44 271.08,447.89 270.59,449.84 C271.26,446.92 271.09,445.98 270.19,445.00 C269.43,444.17 265.63,439.00 261.75,433.50 C241.58,404.96 215.25,377.78 193.07,362.62 C188.48,359.48 186.95,358.95 183.17,359.20 C181.39,359.32 180.17,359.54 179.18,360.01 C180.19,359.48 181.43,359.18 183.10,358.98 L 187.50 358.47 L 183.00 356.08 C180.52,354.77 173.64,351.97 167.70,349.85 C145.66,341.99 132.65,345.91 122.41,363.50 L 119.50 368.50 L 118.83 363.50 C118.81,363.40 118.80,363.32 118.79,363.25 C119.25,346.07 120.52,335.45 123.17,324.00 C130.89,290.68 139.22,281.83 161.47,283.34 C181.27,284.68 203.28,294.20 226.52,311.47 C243.53,324.12 277.01,360.03 291.56,381.24 C293.73,384.39 295.83,386.98 296.23,386.99 C296.41,386.99 296.76,386.63 297.19,386.03 ZM 136.28 515.40 C142.41,535.12 151.06,557.25 160.49,577.55 C158.56,573.43 156.70,569.35 155.02,565.50 C147.50,548.22 141.30,531.76 136.28,515.40 ZM 429.21 764.68 C437.06,766.54 445.40,768.03 455.33,769.41 C450.21,768.88 445.50,768.22 441.50,767.43 C437.34,766.60 433.24,765.69 429.21,764.68 ZM 478.43 770.80 C490.53,770.89 504.29,770.44 511.50,769.52 C502.48,770.68 490.49,771.08 478.43,770.80 ZM 313.87 359.55 C308.61,367.24 303.71,374.93 299.33,382.36 C302.14,377.01 307.50,368.68 313.87,359.55 ZM 366.70 413.46 C378.32,392.07 392.68,370.19 410.12,347.11 C392.97,369.80 378.39,392.11 366.70,413.46 ZM 119.08 409.08 C120.40,440.80 123.95,467.39 130.31,493.69 C123.83,467.09 120.30,439.91 119.08,409.08 ZM 336.49 329.56 C347.71,315.85 361.57,300.38 382.38,278.33 C362.79,299.10 348.19,315.36 336.49,329.56 ZM 385.11 748.94 C390.16,751.26 396.28,753.91 401.48,755.99 C396.26,753.99 391.16,751.81 386.20,749.45 C385.83,749.28 385.46,749.10 385.11,748.94 ZM 313.25 693.13 C302.49,680.23 293.21,666.12 285.49,650.95 C293.19,666.04 302.45,680.12 313.25,693.13 ZM 269.92 452.46 C269.65,453.52 269.36,454.64 269.07,455.78 C268.46,458.14 267.87,460.54 267.31,462.97 C268.16,459.22 269.00,455.81 269.77,453.00 C269.82,452.81 269.87,452.63 269.92,452.46 ZM 262.07 490.12 C261.82,491.73 261.57,493.36 261.33,495.00 C260.44,501.05 259.86,510.37 259.58,520.68 C259.86,510.37 260.44,501.05 261.32,495.00 C261.55,493.43 261.80,491.79 262.07,490.12 ZM 176.80 362.06 C176.73,362.14 176.67,362.23 176.60,362.32 C176.26,362.78 175.97,363.21 175.73,363.72 C175.97,363.21 176.26,362.78 176.60,362.32 C176.67,362.23 176.73,362.14 176.80,362.06 Z" fill="rgb(2,116,186)"/>
<path d="M 492.03 1081.94 C482.85,1083.09 417.76,1083.43 416.67,1082.33 C416.30,1081.97 416.00,1040.79 416.00,990.83 L 416.00 900.00 L 452.37 900.00 C497.31,900.00 503.51,900.79 521.50,908.84 C537.54,916.01 551.21,928.71 558.65,943.35 C562.33,950.61 564.89,958.15 567.44,969.31 C569.47,978.19 569.48,1001.55 567.46,1013.00 C560.80,1050.69 532.08,1076.94 492.03,1081.94 ZM 136.28 515.40 C134.07,508.17 132.08,500.95 130.31,493.69 L 130.31 493.69 C123.95,467.39 120.40,440.79 119.08,409.08 C118.77,401.30 118.61,393.29 118.59,385.00 C118.56,376.64 118.62,369.51 118.79,363.25 C118.80,363.32 118.81,363.40 118.83,363.50 L 119.50 368.50 L 122.41 363.50 C132.65,345.91 145.66,341.99 167.70,349.85 C173.64,351.97 180.52,354.77 183.00,356.08 L 187.50 358.47 L 183.10 358.98 C181.43,359.18 180.19,359.48 179.18,360.01 C178.27,360.44 177.56,361.09 176.80,362.06 C176.73,362.14 176.67,362.23 176.60,362.32 C176.26,362.78 175.97,363.21 175.73,363.72 C175.66,363.85 175.60,363.99 175.54,364.14 L 175.54 364.14 C174.57,366.54 174.41,370.76 174.17,384.82 C172.56,481.32 198.99,566.49 255.83,648.00 C272.71,672.21 290.08,693.05 315.27,719.32 C316.06,720.14 316.82,720.93 317.54,721.68 C322.72,727.10 326.15,730.68 328.45,732.57 C330.94,734.79 331.84,735.08 332.14,734.33 C332.54,733.32 332.89,732.79 332.93,733.14 C333.08,734.55 328.92,753.95 326.94,761.00 C325.79,765.12 324.47,770.30 324.01,772.50 C323.90,773.03 323.71,773.78 323.46,774.69 L 320.56 772.61 C308.56,763.99 293.07,752.01 285.50,745.50 C274.79,736.27 249.03,710.27 241.12,700.70 C238.03,696.96 233.55,691.56 231.16,688.70 C218.80,673.91 198.32,645.04 187.44,627.06 C184.63,622.41 181.81,618.44 181.17,618.22 C180.35,617.95 180.05,668.45 180.01,823.43 L 180.02 614.96 L 175.64 607.23 C171.09,599.21 165.51,588.24 160.49,577.55 C151.06,557.25 142.41,535.12 136.28,515.40 ZM 441.25 1061.36 C441.94,1061.65 453.30,1061.66 466.50,1061.38 C489.93,1060.88 490.70,1060.79 499.00,1057.88 C521.92,1049.85 535.45,1035.16 541.09,1012.18 C543.44,1002.60 543.66,982.60 541.52,971.46 C538.08,953.47 526.66,937.60 511.80,930.14 C497.91,923.17 491.25,922.00 465.42,922.00 C453.18,922.00 442.45,922.27 441.58,922.61 C440.16,923.15 440.00,930.20 440.00,992.02 C440.00,1046.12 440.27,1060.95 441.25,1061.36 ZM 256.17 1079.25 C253.63,1081.99 253.60,1082.00 239.81,1082.00 C229.21,1082.00 226.00,1081.70 226.00,1080.71 C226.00,1079.50 236.65,1063.45 256.33,1035.00 C261.08,1028.12 269.69,1015.53 275.44,1007.00 C281.20,998.47 288.70,987.45 292.10,982.50 C295.50,977.55 302.54,967.22 307.74,959.53 C312.93,951.85 318.16,944.34 319.34,942.85 C320.53,941.35 322.82,937.96 324.44,935.31 C327.78,929.84 339.40,913.09 345.30,905.25 L 349.24 900.00 L 387.00 900.00 L 387.00 1082.00 L 363.28 1082.00 L 362.72 1076.75 C362.41,1073.86 362.09,1039.12 362.02,999.55 C361.94,959.98 361.65,927.24 361.38,926.80 C361.11,926.36 360.28,926.00 359.55,926.00 C358.32,926.00 339.10,954.05 325.39,975.86 C322.15,981.00 318.26,986.69 316.75,988.49 C315.24,990.29 314.00,992.00 314.00,992.28 C314.00,992.80 297.36,1018.28 292.30,1025.49 C290.76,1027.69 285.75,1035.34 281.16,1042.49 C276.58,1049.65 272.03,1056.62 271.07,1058.00 C270.10,1059.38 266.92,1064.10 264.01,1068.50 C261.09,1072.90 257.56,1077.74 256.17,1079.25 ZM 609.16 745.89 L 612.00 743.86 L 609.25 745.85 C607.74,746.94 604.70,749.71 602.50,752.02 C597.00,757.76 586.06,766.61 576.56,772.99 C568.84,778.17 547.57,789.57 541.50,791.77 C523.18,798.43 518.17,800.00 515.31,800.00 C513.47,800.00 509.39,800.65 506.23,801.44 C500.68,802.83 497.27,803.51 482.50,806.22 C477.81,807.08 466.60,807.46 448.50,807.39 C421.50,807.28 413.83,806.55 393.99,802.15 C388.29,800.89 373.02,795.81 366.61,793.06 C363.92,791.90 360.95,791.20 360.01,791.50 C359.18,791.76 357.17,794.70 355.31,798.32 C358.64,791.03 362.15,782.36 364.47,775.50 C367.71,765.88 368.67,761.96 370.69,761.29 C371.42,761.05 372.30,761.23 373.47,761.72 L 379.31 764.66 C407.91,779.02 440.36,786.45 474.00,786.34 C499.68,786.26 523.30,782.30 548.50,773.86 C562.72,769.09 583.80,759.85 594.29,753.77 C596.93,752.25 600.14,751.00 601.42,751.00 C602.71,751.00 604.33,750.30 605.04,749.45 C605.74,748.60 607.60,747.00 609.16,745.89 ZM 307.46 865.90 C298.02,875.25 287.66,884.03 276.37,892.26 C286.91,884.58 297.93,875.18 307.46,865.90 ZM 339.60 826.50 C335.87,832.24 331.89,837.81 327.66,843.21 C331.60,837.95 336.10,831.63 339.60,826.50 ZM 323.10 775.99 C321.34,782.14 317.76,793.07 316.12,797.09 C315.77,797.96 314.54,801.06 313.02,804.96 C314.64,800.80 316.02,797.28 316.52,796.00 C317.27,794.08 319.15,788.50 320.69,783.61 ZM 349.10 810.53 C348.13,812.33 347.13,814.11 346.11,815.87 C346.96,814.21 348.13,812.12 349.10,810.53 ZM 180.66 1118.33 C180.41,1118.08 180.19,1064.13 180.08,985.37 C180.19,1063.93 180.41,1117.85 180.67,1118.33 C180.66,1118.33 180.66,1118.33 180.66,1118.33 Z" fill="rgb(62,64,147)"/>
<path d="M 260.68 1076.00 L 255.86 1083.00 L 239.43 1083.00 C230.39,1083.00 223.00,1082.70 223.00,1082.33 C223.00,1081.71 230.49,1070.44 242.49,1053.00 C245.33,1048.88 252.40,1038.53 258.21,1030.00 C264.01,1021.47 272.45,1009.10 276.96,1002.50 C281.46,995.90 288.98,984.88 293.65,978.00 C298.32,971.12 308.61,956.05 316.51,944.50 C324.42,932.95 334.62,917.98 339.19,911.24 L 347.50 898.97 L 368.00 899.24 L 388.50 899.50 L 388.50 1082.50 L 361.00 1083.06 L 361.00 1005.44 C361.00,943.82 360.74,927.91 359.75,928.21 C358.43,928.61 341.13,954.28 294.00,1025.77 C278.33,1049.55 263.33,1072.15 260.68,1076.00 ZM 256.17 1079.25 C257.56,1077.74 261.09,1072.90 264.01,1068.50 C266.92,1064.10 270.10,1059.38 271.07,1058.00 C272.03,1056.62 276.58,1049.65 281.16,1042.49 C285.75,1035.34 290.76,1027.69 292.30,1025.49 C297.36,1018.28 314.00,992.80 314.00,992.28 C314.00,992.00 315.24,990.29 316.75,988.49 C318.26,986.69 322.15,981.00 325.39,975.86 C339.10,954.05 358.32,926.00 359.55,926.00 C360.28,926.00 361.11,926.36 361.38,926.80 C361.65,927.24 361.94,959.98 362.02,999.55 C362.09,1039.12 362.41,1073.86 362.72,1076.75 L 363.28 1082.00 L 387.00 1082.00 L 387.00 900.00 L 349.24 900.00 L 345.30 905.25 C339.40,913.09 327.78,929.84 324.44,935.31 C322.82,937.96 320.53,941.35 319.34,942.85 C318.16,944.34 312.93,951.85 307.74,959.53 C302.54,967.22 295.50,977.55 292.10,982.50 C288.70,987.45 281.20,998.47 275.44,1007.00 C269.69,1015.53 261.08,1028.12 256.33,1035.00 C236.65,1063.45 226.00,1079.50 226.00,1080.71 C226.00,1081.70 229.21,1082.00 239.81,1082.00 C253.60,1082.00 253.63,1081.99 256.17,1079.25 ZM 441.25 1061.36 C440.27,1060.95 440.00,1046.12 440.00,992.02 C440.00,930.20 440.16,923.15 441.58,922.61 C441.65,922.58 441.80,922.55 442.00,922.52 L 442.00 1060.13 L 466.25 1059.68 C488.01,1059.28 496.17,1058.74 503.34,1056.23 C501.94,1056.81 500.49,1057.36 499.00,1057.88 C490.70,1060.79 489.93,1060.88 466.50,1061.38 C453.30,1061.66 441.94,1061.65 441.25,1061.36 ZM 359.34 792.00 C359.61,791.73 359.83,791.55 360.01,791.50 C360.95,791.20 363.92,791.90 366.61,793.06 C373.02,795.81 388.29,800.89 393.99,802.15 C413.83,806.55 421.50,807.28 448.50,807.39 C466.60,807.46 477.81,807.08 482.50,806.22 C497.27,803.51 500.68,802.83 506.23,801.44 C509.39,800.65 513.47,800.00 515.31,800.00 C518.08,800.00 522.86,798.53 539.78,792.39 C537.42,793.25 533.56,794.65 530.00,795.95 C479.48,814.33 418.20,814.15 369.45,795.47 C364.47,793.56 359.93,792.00 359.36,792.00 C359.35,792.00 359.35,792.00 359.34,792.00 ZM 0.00 1249.06 L 0.00 1154.50 L 10.75 1154.74 C16.66,1154.87 28.02,1155.11 36.00,1155.26 C39.25,1155.33 41.99,1155.42 44.33,1155.58 C40.41,1155.39 34.66,1155.30 25.75,1155.19 L 1.00 1154.87 L 1.00 1201.27 C1.00,1226.79 1.31,1247.98 1.70,1248.37 C2.00,1248.67 5.27,1248.85 9.52,1248.84 L 0.00 1249.06 ZM 286.78 884.31 C278.20,891.35 270.02,897.42 265.74,899.63 L 262.60 901.26 L 264.43 898.38 C265.44,896.80 267.04,894.60 267.99,893.50 C268.87,892.47 270.12,890.72 271.62,888.45 C269.51,891.86 268.00,894.56 268.00,894.99 C268.00,897.01 271.35,895.92 276.37,892.26 C279.93,889.66 283.40,887.01 286.78,884.31 ZM 522.58 768.07 C523.99,767.68 524.67,767.27 524.40,766.84 C524.27,766.62 523.68,766.46 522.72,766.37 C524.16,766.21 524.99,766.00 524.99,765.75 C525.00,765.34 528.22,765.00 532.17,765.00 C542.51,765.00 541.51,765.55 522.58,768.07 ZM 466.17 258.97 C455.53,281.97 442.88,303.68 429.26,321.75 C441.42,305.61 455.33,281.75 466.17,258.97 ZM 453.00 2.00 C453.00,-0.47 454.96,1.70 461.61,11.72 C458.18,6.86 455.56,3.81 455.26,4.71 C455.11,5.16 455.53,7.82 456.26,11.32 C456.14,10.91 456.03,10.57 455.93,10.31 C455.42,8.97 455.00,6.77 455.00,5.43 C455.00,4.10 454.55,3.00 454.00,3.00 C453.45,3.00 453.00,2.55 453.00,2.00 ZM 415.30 1304.63 C414.09,1301.92 413.07,1300.02 412.77,1300.01 C411.95,1300.00 411.44,1302.01 410.88,1307.99 C410.96,1306.24 411.00,1304.54 411.00,1303.15 C411.00,1299.22 411.36,1296.98 411.90,1297.55 C412.31,1297.98 413.73,1300.97 415.30,1304.63 ZM 458.96 23.03 C461.60,34.71 463.42,45.18 464.59,55.75 C464.46,54.74 464.33,53.75 464.18,52.76 C462.87,43.66 460.78,31.95 458.96,23.03 ZM 465.95 106.42 C465.23,122.34 463.34,135.42 459.97,148.52 C463.02,136.64 465.05,121.82 465.95,106.42 ZM 492.11 183.33 C491.80,184.74 491.48,186.16 491.14,187.58 C495.28,169.38 497.52,151.66 497.89,134.41 C497.60,150.59 495.68,167.07 492.11,183.33 ZM 525.10 1042.12 C532.65,1034.23 538.20,1023.96 541.09,1012.18 C538.08,1024.44 532.83,1034.34 525.10,1042.12 ZM 484.35 765.73 C476.91,765.16 469.79,764.37 464.74,763.48 C457.90,762.27 451.54,760.75 445.52,758.86 C456.84,762.37 469.44,764.51 484.35,765.73 ZM 483.74 52.65 C480.40,44.23 476.48,36.05 471.97,28.12 L 471.94 28.06 C476.86,36.45 480.31,43.69 483.74,52.65 ZM 68.67 1199.40 C65.95,1207.04 60.77,1213.00 53.50,1216.77 C60.67,1213.05 65.92,1206.88 68.67,1199.40 ZM 54.13 1157.45 C56.29,1158.35 58.06,1159.64 59.97,1161.48 C58.31,1159.99 56.50,1158.71 54.57,1157.68 C54.42,1157.60 54.28,1157.52 54.13,1157.45 ZM 65.57 1168.14 C69.10,1173.59 70.91,1180.00 70.84,1186.85 C70.84,1185.48 70.77,1184.08 70.62,1182.68 C70.08,1177.45 68.29,1172.43 65.57,1168.14 ZM 417.28 1309.36 C419.33,1314.08 420.48,1315.61 421.94,1315.83 C422.14,1315.86 422.33,1315.88 422.51,1315.89 C422.32,1315.88 422.13,1315.86 421.93,1315.83 C420.40,1315.60 419.26,1314.07 417.28,1309.36 ZM 339.60 826.50 C339.83,826.16 340.06,825.83 340.28,825.49 C338.09,828.91 335.79,832.26 333.39,835.57 C335.53,832.60 337.60,829.58 339.60,826.50 ZM 409.72 1322.00 L 410.06 1318.65 L 409.82 1322.00 ZM 349.10 810.53 L 349.24 810.31 C348.15,812.32 347.04,814.31 345.91,816.28 C345.97,816.14 346.04,816.01 346.11,815.87 C347.13,814.11 348.13,812.33 349.10,810.53 ZM 276.29 881.03 C277.58,878.91 278.93,876.63 280.31,874.27 C278.91,876.67 277.55,878.96 276.29,881.03 ZM 307.78 865.59 C307.44,865.92 307.10,866.25 306.75,866.59 C306.99,866.36 307.22,866.13 307.46,865.90 C307.56,865.79 307.67,865.69 307.78,865.59 Z" fill="rgb(253,203,43)"/>
<path d="M 629.00 1154.84 L 652.75 1155.18 C675.17,1155.50 676.79,1155.65 681.74,1157.88 C693.76,1163.29 698.68,1174.76 694.39,1187.37 C693.51,1189.96 691.25,1193.71 689.38,1195.70 C687.51,1197.68 686.09,1199.37 686.24,1199.45 C695.69,1204.40 699.52,1210.80 699.46,1221.50 C699.41,1230.01 697.13,1234.96 690.59,1240.71 C682.92,1247.46 678.82,1248.33 652.25,1248.77 L 629.00 1249.16 ZM 130.00 1155.00 L 152.32 1155.00 C178.43,1155.00 182.68,1155.82 189.56,1162.16 C195.05,1167.22 198.00,1174.63 198.00,1183.36 C198.00,1193.03 195.70,1199.28 189.94,1205.25 C187.22,1208.07 185.00,1210.43 185.00,1210.50 C185.00,1210.56 189.67,1219.00 195.38,1229.26 C201.09,1239.52 205.51,1248.15 205.21,1248.45 C204.91,1248.75 199.23,1248.99 192.58,1248.99 L 180.50 1248.98 L 172.18 1232.99 L 163.87 1217.00 L 153.05 1217.00 L 152.50 1248.50 L 141.25 1248.78 L 130.00 1249.07 ZM 65.57 1168.14 C68.29,1172.43 70.08,1177.45 70.62,1182.68 C70.77,1184.08 70.84,1185.48 70.84,1186.85 C70.82,1189.36 70.55,1191.92 70.02,1194.52 C69.67,1196.21 69.22,1197.84 68.67,1199.40 C65.92,1206.88 60.67,1213.05 53.50,1216.77 C49.12,1219.04 46.98,1219.42 36.28,1219.80 L 24.05 1220.24 L 23.78 1234.37 L 23.50 1248.50 L 9.52 1248.84 L 9.52 1248.84 C5.27,1248.85 2.00,1248.67 1.70,1248.37 C1.31,1247.98 1.00,1226.79 1.00,1201.27 L 1.00 1154.87 L 25.75 1155.19 C34.65,1155.30 40.41,1155.39 44.33,1155.58 L 44.33 1155.58 C48.65,1155.88 51.65,1156.41 54.13,1157.45 C54.28,1157.52 54.42,1157.60 54.57,1157.68 C56.50,1158.71 58.31,1159.99 59.97,1161.48 C60.75,1162.24 61.56,1163.09 62.43,1164.06 C63.59,1165.34 64.64,1166.71 65.57,1168.14 ZM 531.00 1247.99 C531.00,1246.77 535.00,1234.72 550.42,1189.54 C556.79,1170.86 562.00,1155.45 562.00,1155.29 C562.00,1155.13 567.57,1155.00 574.37,1155.00 L 586.74 1155.00 L 589.30 1162.25 C590.71,1166.24 593.00,1172.88 594.39,1177.00 C595.78,1181.12 601.68,1198.45 607.50,1215.50 C613.32,1232.55 618.18,1246.95 618.29,1247.50 C618.42,1248.11 613.93,1248.61 606.82,1248.78 L 595.14 1249.06 L 592.52 1240.28 C591.08,1235.45 589.71,1230.94 589.48,1230.25 C589.17,1229.33 585.26,1229.00 574.50,1229.00 C563.74,1229.00 559.83,1229.33 559.52,1230.25 C559.29,1230.94 557.93,1235.44 556.49,1240.25 L 553.88 1249.00 L 542.44 1249.00 C535.38,1249.00 531.00,1248.61 531.00,1247.99 ZM 209.00 1248.14 C209.00,1247.63 215.33,1228.60 223.07,1205.85 C230.81,1183.11 237.86,1162.35 238.73,1159.72 L 240.32 1154.94 L 252.78 1155.22 L 265.24 1155.50 L 279.14 1196.50 C286.79,1219.05 293.88,1239.84 294.91,1242.70 C295.93,1245.56 296.52,1248.14 296.22,1248.45 C295.92,1248.75 290.63,1249.00 284.47,1249.00 L 273.27 1249.00 L 271.55 1243.25 C270.60,1240.09 269.27,1235.70 268.58,1233.50 L 267.33 1229.50 L 237.68 1229.50 L 235.00 1239.00 L 232.32 1248.50 L 220.66 1248.78 C213.96,1248.94 209.00,1248.67 209.00,1248.14 ZM 705.00 1248.19 C705.00,1247.70 710.44,1231.38 717.09,1211.90 C723.73,1192.43 730.79,1171.65 732.76,1165.72 L 736.35 1154.94 L 761.31 1155.50 L 768.06 1175.50 C771.78,1186.50 778.85,1207.30 783.77,1221.72 C788.70,1236.14 792.49,1248.17 792.20,1248.47 C791.91,1248.76 786.63,1249.00 780.48,1249.00 L 769.29 1249.00 L 766.39 1238.98 L 763.50 1228.95 L 748.57 1229.23 L 733.65 1229.50 L 731.05 1239.00 L 728.46 1248.50 L 716.73 1248.78 C710.28,1248.94 705.00,1248.67 705.00,1248.19 ZM 339.00 1249.43 C318.37,1244.97 303.61,1229.08 301.01,1208.55 C297.09,1177.69 319.07,1153.12 350.69,1153.02 C361.14,1152.98 375.42,1157.87 382.83,1164.02 L 385.16 1165.95 L 380.01 1174.48 C377.18,1179.16 374.73,1183.00 374.55,1183.00 C374.38,1183.00 371.68,1181.45 368.54,1179.57 C359.65,1174.21 351.12,1172.86 342.56,1175.43 C330.55,1179.05 324.43,1187.78 324.64,1201.00 C324.83,1213.22 329.88,1221.84 339.64,1226.61 C349.43,1231.40 361.06,1229.53 371.64,1221.46 C373.42,1220.11 375.32,1219.00 375.87,1219.00 C376.42,1219.00 379.40,1222.49 382.49,1226.75 L 388.10 1234.50 L 383.82 1238.23 C378.10,1243.20 368.59,1247.77 360.29,1249.53 C352.00,1251.28 347.45,1251.26 339.00,1249.43 ZM 479.00 1249.49 C464.42,1246.20 452.23,1237.01 446.19,1224.74 C441.94,1216.10 440.71,1209.53 441.17,1197.98 C441.53,1188.91 441.86,1187.63 445.79,1179.70 C455.87,1159.35 477.95,1149.44 501.95,1154.49 C510.93,1156.38 525.00,1163.46 525.00,1166.09 C525.00,1166.97 516.41,1180.99 515.03,1182.37 C514.39,1183.01 513.43,1182.79 512.25,1181.72 C509.07,1178.84 499.65,1175.09 493.90,1174.42 C486.40,1173.54 478.15,1175.97 473.08,1180.55 C459.47,1192.85 462.84,1218.02 479.21,1226.37 C489.23,1231.47 500.33,1229.92 510.87,1221.92 C513.83,1219.68 516.58,1218.22 516.99,1218.67 C517.39,1219.13 520.04,1222.84 522.87,1226.91 L 523.17 1227.35 C525.80,1231.14 527.19,1233.15 526.91,1234.87 C526.58,1236.87 524.01,1238.49 518.54,1242.08 C507.34,1249.43 491.72,1252.36 479.00,1249.49 ZM 85.00 1155.00 L 108.02 1155.00 L 107.50 1248.50 L 96.25 1248.78 L 85.00 1249.07 ZM 402.00 1155.00 L 425.02 1155.00 L 424.50 1248.50 L 413.25 1248.78 L 402.00 1249.07 ZM 357.50 1321.34 C350.08,1317.43 346.00,1310.92 346.00,1303.00 C346.00,1294.53 350.29,1288.09 357.68,1285.45 C369.03,1281.40 380.42,1286.75 383.57,1297.61 C384.99,1302.47 384.99,1303.52 383.61,1308.26 C381.11,1316.89 372.79,1322.82 364.80,1323.00 L 364.06 1323.00 C361.79,1322.95 359.55,1322.42 357.50,1321.34 ZM 484.00 1284.82 L 494.93 1285.16 C504.08,1285.44 506.31,1285.84 508.62,1287.56 C513.56,1291.26 515.34,1294.59 515.81,1301.02 C516.41,1309.32 514.18,1314.91 508.80,1318.64 C505.03,1321.26 503.80,1321.53 494.34,1321.84 L 484.00 1322.18 ZM 85.03 1317.75 C85.05,1315.41 85.71,1307.20 86.51,1299.50 C87.31,1291.80 87.97,1285.39 87.98,1285.25 C87.99,1285.11 89.71,1285.00 91.80,1285.00 L 95.61 1285.00 L 99.95 1296.21 L 104.29 1307.42 L 106.60 1302.17 C107.88,1299.29 109.90,1294.24 111.09,1290.96 C113.23,1285.11 113.34,1285.00 117.06,1285.00 L 120.86 1285.00 L 121.45 1290.25 C122.37,1298.44 124.00,1317.26 124.00,1319.75 C124.00,1321.64 123.46,1322.00 120.63,1322.00 L 117.26 1322.00 L 116.54 1311.01 C116.15,1304.96 115.48,1299.80 115.05,1299.53 C114.62,1299.27 112.71,1302.75 110.80,1307.27 C107.60,1314.87 107.11,1315.50 104.45,1315.50 C101.80,1315.50 101.31,1314.87 98.23,1307.50 C96.39,1303.10 94.53,1299.14 94.09,1298.70 C93.65,1298.25 92.97,1302.96 92.58,1309.15 C92.19,1315.34 91.65,1320.77 91.37,1321.20 C91.10,1321.64 89.56,1322.00 87.94,1322.00 C85.14,1322.00 85.00,1321.79 85.03,1317.75 ZM 403.45 1316.75 C404.37,1308.56 406.00,1289.74 406.00,1287.25 C406.00,1285.30 406.52,1285.00 409.94,1285.00 L 413.88 1285.00 L 418.13 1295.98 C420.46,1302.02 422.63,1306.71 422.94,1306.41 C423.25,1306.11 425.33,1301.28 427.56,1295.68 C431.60,1285.54 431.63,1285.50 435.27,1285.19 C438.41,1284.93 439.00,1285.21 439.42,1287.19 C440.04,1290.17 442.00,1313.95 442.00,1318.58 C442.00,1321.98 441.86,1322.11 438.76,1321.81 C436.80,1321.62 435.44,1320.91 435.32,1320.00 C435.21,1319.18 434.82,1314.11 434.46,1308.75 C434.11,1303.39 433.52,1299.00 433.16,1299.00 C432.80,1299.01 431.15,1302.42 429.50,1306.58 C426.37,1314.47 425.25,1316.11 422.51,1315.89 C422.33,1315.88 422.14,1315.86 421.94,1315.83 C420.48,1315.61 419.33,1314.08 417.28,1309.36 L 417.28 1309.36 C417.07,1308.86 416.85,1308.33 416.62,1307.76 C416.17,1306.65 415.72,1305.59 415.30,1304.63 C413.73,1300.97 412.31,1297.98 411.90,1297.55 C411.36,1296.98 411.00,1299.22 411.00,1303.15 C411.00,1304.54 410.96,1306.24 410.88,1307.99 C410.75,1309.49 410.61,1311.23 410.46,1313.25 L 410.06 1318.65 L 409.72 1322.00 L 402.86 1322.00 ZM 562.00 1285.00 L 572.08 1285.00 C581.88,1285.00 582.23,1285.08 585.08,1287.92 C589.19,1292.04 589.23,1298.60 585.15,1303.16 L 582.30 1306.35 L 586.15 1313.14 C588.27,1316.88 590.00,1320.40 590.00,1320.97 C590.00,1321.54 588.48,1322.00 586.62,1322.00 C583.46,1322.00 583.02,1321.56 579.57,1315.00 C576.10,1308.40 575.69,1308.00 572.45,1308.00 L 569.00 1308.00 L 569.00 1322.00 L 562.00 1322.00 ZM 297.00 1285.00 L 306.05 1285.00 C316.15,1285.00 319.91,1286.30 321.81,1290.47 C324.01,1295.31 322.60,1301.59 318.56,1304.95 C317.17,1306.11 317.43,1307.03 321.00,1313.50 C323.20,1317.48 325.00,1321.03 325.00,1321.37 C325.00,1321.72 323.48,1322.00 321.62,1322.00 C318.50,1322.00 317.95,1321.49 314.36,1315.25 C310.97,1309.34 310.08,1308.46 307.24,1308.19 L 304.00 1307.87 L 304.00 1322.00 L 297.00 1322.00 ZM 644.00 1285.00 L 653.75 1285.02 C664.11,1285.05 666.45,1285.92 668.88,1290.68 C671.08,1294.98 669.52,1301.66 665.55,1304.96 C664.13,1306.13 664.39,1307.04 667.98,1313.59 C670.19,1317.61 672.00,1321.15 672.00,1321.45 C672.00,1321.75 670.46,1322.00 668.57,1322.00 C665.35,1322.00 664.91,1321.57 661.36,1315.00 C657.86,1308.52 657.34,1308.00 654.29,1308.00 L 651.00 1308.00 L 651.00 1322.00 L 644.00 1322.00 ZM 149.00 1285.00 L 152.52 1285.00 C155.91,1285.00 156.31,1285.42 163.77,1296.93 C168.02,1303.50 171.84,1308.90 172.25,1308.93 C172.66,1308.97 173.00,1303.60 173.00,1297.00 L 173.00 1285.00 L 180.05 1285.00 L 179.77 1303.25 L 179.50 1321.50 L 176.00 1321.73 C172.56,1321.96 172.36,1321.75 164.50,1309.73 L 156.50 1297.50 L 155.50 1321.50 L 149.00 1322.13 ZM 451.90 1305.31 C455.14,1296.06 458.11,1287.71 458.50,1286.75 C459.00,1285.52 460.33,1285.00 462.98,1285.00 L 466.75 1285.00 L 472.31 1300.75 L 473.15 1303.13 C478.07,1317.07 479.36,1320.73 478.27,1321.68 C477.89,1322.02 477.20,1322.01 476.27,1322.00 C476.13,1322.00 475.98,1322.00 475.83,1322.00 C472.67,1322.00 472.34,1321.69 471.11,1317.50 L 469.78 1313.00 L 456.17 1313.00 L 454.76 1317.25 C453.47,1321.11 453.01,1321.53 449.67,1321.81 L 446.00 1322.12 ZM 675.00 1320.72 C675.00,1319.95 677.70,1311.75 681.00,1302.50 C684.30,1293.25 687.00,1285.53 687.00,1285.34 C687.00,1285.15 688.74,1285.00 690.86,1285.00 C691.25,1285.00 691.60,1284.98 691.91,1284.97 C692.52,1284.93 693.01,1284.91 693.44,1285.04 C695.27,1285.60 696.23,1288.96 702.42,1306.38 C704.94,1313.46 707.00,1319.90 707.00,1320.69 C707.00,1321.70 706.06,1322.03 703.83,1321.81 C701.08,1321.54 700.46,1320.93 699.24,1317.25 L 697.83 1313.00 L 684.17 1313.00 L 682.76 1317.25 C681.54,1320.93 680.92,1321.54 678.17,1321.81 C675.97,1322.03 675.00,1321.70 675.00,1320.72 ZM 531.07 1321.25 C524.35,1317.82 523.54,1315.57 523.18,1299.43 L 522.85 1285.00 L 530.00 1285.00 L 530.01 1297.25 C530.02,1303.99 530.30,1310.53 530.64,1311.79 C531.45,1314.82 536.35,1317.30 539.97,1316.51 C545.66,1315.26 546.47,1313.13 546.83,1298.40 L 547.15 1285.00 L 550.33 1285.00 L 553.50 1285.00 L 553.00 1299.75 C552.44,1316.22 551.86,1317.95 545.79,1321.08 C541.17,1323.47 535.55,1323.53 531.07,1321.25 ZM 43.16 1197.15 C45.95,1194.66 46.41,1193.52 46.80,1188.16 C47.54,1177.90 43.06,1174.00 30.53,1174.00 L 24.00 1174.00 L 24.00 1200.00 L 31.98 1200.00 C39.35,1200.00 40.22,1199.78 43.16,1197.15 ZM 597.67 1321.33 C597.30,1320.97 597.00,1312.64 597.00,1302.83 L 597.00 1285.00 L 620.13 1285.00 L 619.82 1287.75 C619.50,1290.46 619.38,1290.50 611.75,1290.79 L 604.00 1291.08 L 604.00 1300.00 L 617.13 1300.00 L 616.82 1302.75 C616.51,1305.39 616.24,1305.51 610.20,1305.80 L 603.90 1306.10 L 604.20 1311.30 L 604.50 1316.50 L 612.14 1316.79 C618.68,1317.04 619.86,1317.36 620.29,1318.98 C620.56,1320.03 620.53,1321.14 620.22,1321.44 C619.43,1322.24 598.47,1322.14 597.67,1321.33 ZM 369.51 1315.56 C379.05,1311.57 379.62,1295.90 370.39,1291.52 C366.38,1289.61 364.99,1289.62 360.10,1291.58 C350.73,1295.33 350.72,1310.45 360.08,1315.25 C364.23,1317.37 365.11,1317.40 369.51,1315.56 ZM 207.25 1320.89 C202.76,1318.67 202.25,1317.58 204.38,1314.77 C205.61,1313.14 205.98,1313.17 210.77,1315.19 C215.63,1317.24 215.96,1317.26 218.48,1315.60 C222.89,1312.71 221.52,1310.12 213.15,1305.51 C204.23,1300.61 202.20,1297.60 203.93,1291.84 C205.72,1285.88 211.27,1283.21 219.38,1284.43 C221.77,1284.79 224.55,1285.68 225.56,1286.42 C227.28,1287.68 227.29,1287.90 225.72,1290.31 C224.06,1292.83 224.00,1292.84 220.01,1291.27 C216.82,1290.02 215.46,1289.93 213.46,1290.84 C207.68,1293.47 209.42,1296.93 218.62,1301.06 C227.67,1305.12 229.83,1309.33 226.48,1316.39 C223.39,1322.91 215.20,1324.83 207.25,1320.89 ZM 267.00 1285.00 L 289.13 1285.00 L 288.82 1287.75 C288.51,1290.43 288.30,1290.51 281.00,1291.00 L 273.50 1291.50 L 273.50 1299.50 L 279.81 1299.80 C286.02,1300.09 286.12,1300.14 285.81,1302.80 C285.52,1305.33 285.13,1305.53 279.51,1306.00 C272.88,1306.55 272.27,1307.32 273.45,1313.60 L 274.09 1317.00 L 282.05 1317.00 C289.86,1317.00 290.00,1317.04 290.00,1319.50 L 290.00 1322.00 L 267.00 1322.00 ZM 166.97 1196.69 C176.08,1193.55 177.95,1178.96 169.61,1175.99 C167.90,1175.38 163.46,1174.62 159.75,1174.30 L 153.00 1173.71 L 153.00 1185.19 C153.00,1191.50 153.30,1196.97 153.67,1197.33 C154.73,1198.40 163.19,1197.99 166.97,1196.69 ZM 673.08 1226.08 C676.97,1222.19 677.18,1216.09 673.55,1212.45 C671.28,1210.19 670.35,1210.00 661.55,1210.00 L 652.00 1210.00 L 652.00 1229.00 L 661.08 1229.00 C669.78,1229.00 670.28,1228.88 673.08,1226.08 ZM 500.19 1315.97 C502.21,1315.40 505.07,1313.51 506.54,1311.77 C508.95,1308.90 509.17,1307.99 508.80,1302.17 C508.45,1296.65 507.99,1295.39 505.64,1293.37 C503.41,1291.45 501.75,1291.00 496.94,1291.00 L 491.00 1291.00 L 491.00 1303.33 C491.00,1310.12 491.30,1315.97 491.67,1316.33 C492.62,1317.29 495.93,1317.15 500.19,1315.97 ZM 243.00 1291.10 L 236.75 1290.80 C230.76,1290.51 230.49,1290.39 230.18,1287.75 L 229.87 1285.00 L 262.13 1285.00 L 261.82 1287.75 C261.51,1290.39 261.24,1290.51 255.25,1290.80 L 249.00 1291.10 L 249.00 1322.00 L 243.00 1322.00 ZM 757.26 1210.41 C757.58,1210.08 757.21,1207.72 756.42,1205.16 C755.63,1202.60 753.54,1195.11 751.78,1188.52 C748.59,1176.64 748.56,1176.57 747.66,1180.52 C747.16,1182.71 745.23,1189.82 743.37,1196.33 C741.52,1202.84 740.00,1208.80 740.00,1209.58 C740.00,1210.69 741.80,1211.00 748.33,1211.00 C752.92,1211.00 756.93,1210.73 757.26,1210.41 ZM 583.00 1209.59 C583.00,1207.99 575.24,1178.91 574.66,1178.32 C574.45,1178.11 573.72,1180.09 573.05,1182.72 C572.38,1185.35 570.35,1192.55 568.55,1198.72 C566.75,1204.89 565.52,1210.18 565.81,1210.47 C566.10,1210.76 570.08,1211.00 574.67,1211.00 C581.16,1211.00 583.00,1210.69 583.00,1209.59 ZM 261.29 1209.36 C261.17,1208.73 259.15,1201.12 256.80,1192.46 C252.68,1177.28 252.49,1176.85 251.64,1180.60 C251.15,1182.75 249.23,1189.82 247.37,1196.33 C245.52,1202.84 244.00,1208.82 244.00,1209.62 C244.00,1210.81 245.62,1211.02 252.75,1210.79 C258.64,1210.59 261.43,1210.13 261.29,1209.36 ZM 670.03 1188.47 C673.15,1185.15 673.22,1179.78 670.17,1176.73 C668.26,1174.81 666.88,1174.50 660.22,1174.50 L 652.50 1174.50 L 652.20 1181.40 C652.04,1185.20 652.13,1188.91 652.42,1189.65 C652.79,1190.61 655.04,1191.00 660.29,1191.00 C666.87,1191.00 667.90,1190.73 670.03,1188.47 ZM 189.00 1285.00 L 196.00 1285.00 L 196.00 1322.00 L 189.00 1322.00 ZM 332.00 1285.00 L 339.00 1285.00 L 339.00 1322.00 L 332.00 1322.00 ZM 628.00 1285.00 L 635.07 1285.00 L 634.84 1322.00 L 628.00 1322.00 ZM 132.47 1320.96 C132.12,1320.39 131.97,1312.06 132.15,1302.46 L 132.47 1285.00 L 139.00 1285.00 L 139.00 1322.00 L 136.06 1322.00 C134.44,1322.00 132.83,1321.53 132.47,1320.96 ZM 314.17 1300.34 C316.25,1298.47 316.59,1293.99 314.80,1292.20 C314.14,1291.54 311.44,1291.00 308.80,1291.00 L 304.00 1291.00 L 304.00 1302.00 L 308.17 1302.00 C310.65,1302.00 313.08,1301.33 314.17,1300.34 ZM 661.44 1299.78 C663.30,1297.12 663.46,1293.86 661.80,1292.20 C661.14,1291.54 658.44,1291.00 655.80,1291.00 L 651.00 1291.00 L 651.00 1302.00 L 655.44 1302.00 C658.90,1302.00 660.23,1301.51 661.44,1299.78 ZM 579.17 1300.34 C581.25,1298.47 581.59,1293.99 579.80,1292.20 C579.14,1291.54 576.44,1291.00 573.80,1291.00 L 569.00 1291.00 L 569.00 1295.83 C569.00,1298.49 569.30,1300.97 569.67,1301.33 C570.97,1302.64 577.37,1301.97 579.17,1300.34 ZM 695.15 1306.52 C695.74,1305.93 691.73,1293.05 690.95,1293.02 C690.13,1292.99 686.14,1305.80 686.78,1306.44 C687.46,1307.13 694.48,1307.19 695.15,1306.52 ZM 466.51 1305.98 C467.07,1305.08 464.67,1296.12 463.19,1293.56 C462.89,1293.05 461.89,1294.85 460.97,1297.56 C460.71,1298.34 460.46,1299.06 460.23,1299.72 C458.65,1304.34 458.06,1306.05 458.65,1306.67 C458.99,1307.04 459.74,1307.03 460.93,1307.01 C461.22,1307.00 461.53,1307.00 461.87,1307.00 C464.08,1307.00 466.17,1306.54 466.51,1305.98 ZM 276.00 1281.52 C276.00,1281.18 276.69,1279.57 277.53,1277.95 C278.79,1275.51 279.68,1275.00 282.65,1275.00 L 286.26 1275.00 L 283.76 1278.25 C282.30,1280.16 280.17,1281.63 278.63,1281.82 C277.18,1281.99 276.00,1281.86 276.00,1281.52 Z" fill="rgb(62,64,147)"/>
<path d="M 180.67 1118.33 C180.30,1117.97 180.00,1005.20 180.00,867.75 C180.00,677.93 180.28,617.93 181.17,618.22 C181.81,618.44 184.63,622.41 187.44,627.06 C198.32,645.04 218.80,673.91 231.16,688.70 C233.55,691.56 238.03,696.96 241.12,700.70 C249.03,710.27 274.79,736.27 285.50,745.50 C293.07,752.01 308.56,763.99 320.56,772.61 L 323.50 774.72 L 320.69 783.61 C319.15,788.50 317.27,794.08 316.52,796.00 C315.76,797.92 313.04,804.90 310.47,811.50 C307.89,818.10 304.33,826.65 302.54,830.50 C300.76,834.35 298.00,840.42 296.42,844.00 C290.62,857.08 273.14,887.52 267.99,893.50 C267.04,894.60 265.44,896.80 264.43,898.38 L 262.60 901.26 L 265.74 899.63 C274.31,895.20 298.53,875.31 310.28,863.05 C329.66,842.82 343.30,823.34 354.60,799.75 C356.64,795.49 358.78,792.00 359.36,792.00 C359.93,792.00 364.47,793.56 369.45,795.47 C418.20,814.15 479.48,814.33 530.00,795.95 C534.67,794.25 539.85,792.37 541.50,791.77 C547.56,789.57 568.84,778.17 576.56,772.99 C586.06,766.61 597.00,757.76 602.50,752.02 C604.70,749.71 607.74,746.94 609.25,745.85 L 612.00 743.86 L 612.00 931.43 L 612.00 1119.00 L 396.67 1119.00 C278.23,1119.00 181.03,1118.70 180.67,1118.33 ZM 260.68 1076.00 C263.33,1072.15 278.33,1049.55 294.00,1025.77 C341.13,954.28 358.43,928.61 359.75,928.21 C360.74,927.91 361.00,943.82 361.00,1005.44 L 361.00 1083.06 L 374.75 1082.78 L 388.50 1082.50 L 388.50 991.00 L 388.50 899.50 L 368.00 899.24 L 347.50 898.97 L 339.19 911.24 C334.62,917.98 324.42,932.95 316.51,944.50 C308.61,956.05 298.32,971.12 293.65,978.00 C288.98,984.88 281.46,995.90 276.96,1002.50 C272.45,1009.10 264.01,1021.47 258.21,1030.00 C252.40,1038.53 245.33,1048.88 242.49,1053.00 C230.49,1070.44 223.00,1081.71 223.00,1082.33 C223.00,1082.70 230.39,1083.00 239.43,1083.00 L 255.86 1083.00 L 260.68 1076.00 ZM 492.03 1081.94 C532.08,1076.94 560.80,1050.69 567.46,1013.00 C569.48,1001.55 569.47,978.19 567.44,969.31 C564.89,958.15 562.33,950.61 558.65,943.35 C551.21,928.71 537.54,916.01 521.50,908.84 C503.51,900.79 497.31,900.00 452.37,900.00 L 416.00 900.00 L 416.00 990.83 C416.00,1040.79 416.30,1081.97 416.67,1082.33 C417.76,1083.43 482.85,1083.09 492.03,1081.94 ZM 459.00 769.90 C437.93,767.15 424.02,764.03 408.00,758.46 C397.86,754.94 375.00,744.67 375.00,743.63 C375.00,743.36 376.12,738.49 377.50,732.81 C378.87,727.14 380.00,721.47 380.00,720.22 C380.00,715.38 382.91,716.67 392.36,725.71 C415.41,747.75 435.72,758.35 464.74,763.48 C477.37,765.71 502.93,767.28 514.15,766.51 C520.13,766.10 524.02,766.23 524.40,766.84 C526.36,770.00 477.34,772.30 459.00,769.90 ZM 484.50 747.38 C460.51,743.88 454.75,742.64 442.00,738.28 C433.32,735.32 425.32,731.03 422.14,727.65 L 419.93 725.29 L 426.11 724.65 C429.51,724.29 434.41,724.00 437.00,724.00 C449.61,724.00 476.78,713.93 488.96,704.74 C505.81,692.04 519.37,673.46 522.99,658.12 C526.74,642.22 518.79,623.64 500.89,606.44 C490.80,596.75 485.64,592.82 463.52,577.93 C430.18,555.49 414.26,535.91 407.05,508.50 C401.11,485.90 402.17,457.43 410.05,428.22 C414.30,412.46 430.51,375.21 433.52,374.30 C434.08,374.12 435.34,378.52 436.36,384.24 C439.81,403.59 446.01,417.49 458.88,434.71 C467.49,446.23 487.47,466.10 502.50,478.09 C509.10,483.35 523.48,494.83 534.45,503.58 C557.24,521.77 562.83,527.12 570.64,538.20 C586.21,560.29 593.22,585.71 591.53,614.00 L 590.85 625.50 L 594.76 621.71 C598.83,617.76 603.75,608.70 608.98,595.54 C615.41,579.37 620.47,572.81 630.38,567.81 C635.69,565.13 637.13,564.84 643.51,565.16 C649.70,565.47 651.52,566.03 656.68,569.22 C659.97,571.25 664.60,573.35 666.97,573.88 C669.34,574.41 671.94,575.51 672.75,576.32 C674.05,577.62 673.58,578.21 668.83,581.25 C656.28,589.27 650.32,602.00 640.83,641.00 C630.53,683.34 623.54,699.15 608.36,714.38 C593.13,729.64 574.34,738.78 546.00,744.67 C535.00,746.95 530.73,747.30 510.50,747.54 C497.85,747.69 486.15,747.62 484.50,747.38 ZM 324.36 705.56 C290.66,670.47 269.40,626.41 261.35,575.00 C258.75,558.43 258.74,512.69 261.33,495.00 C263.39,480.88 265.95,467.93 269.07,455.78 C270.24,451.22 271.36,446.83 271.56,446.00 C272.49,442.24 281.19,418.66 284.45,411.09 C291.43,394.88 303.28,374.50 317.38,354.50 C331.83,333.99 350.48,312.14 382.38,278.33 C426.40,231.69 447.80,195.88 459.97,148.52 C464.43,131.18 466.30,113.89 466.30,90.00 C466.31,63.06 463.90,43.21 457.36,16.19 C455.99,10.53 455.05,5.36 455.26,4.71 C455.84,2.99 464.96,15.79 471.97,28.12 C485.92,52.67 494.34,79.72 496.99,108.50 C500.68,148.64 493.64,191.30 475.79,236.90 C464.80,264.99 445.47,300.24 429.26,321.75 C425.54,326.69 416.93,338.10 410.12,347.11 C365.56,406.08 341.10,457.22 331.04,512.50 C326.03,540.04 325.74,577.34 330.29,609.50 C335.17,644.04 335.43,647.64 335.44,680.23 C335.44,704.39 335.14,712.26 334.18,713.22 C333.17,714.23 331.24,712.72 324.36,705.56 ZM 601.15 574.25 C601.24,547.80 598.05,535.26 585.46,512.64 C576.82,497.11 569.01,486.69 551.81,467.73 C543.39,458.45 533.71,446.95 530.29,442.18 C522.54,431.35 514.95,416.95 511.48,406.50 C508.22,396.68 507.07,380.43 508.95,370.80 C511.56,357.49 520.57,343.30 529.22,338.89 C531.41,337.77 533.42,337.09 533.69,337.36 C533.97,337.64 533.16,342.28 531.89,347.68 C528.94,360.29 528.69,382.37 531.37,394.00 C535.75,413.06 539.81,420.34 564.56,453.50 C597.57,497.73 609.92,525.69 609.98,556.30 C610.00,569.17 608.26,579.06 604.42,587.75 C603.15,590.64 601.88,593.00 601.60,593.00 C601.32,593.00 601.12,584.56 601.15,574.25 ZM 442.00 991.06 L 442.00 922.00 L 464.84 922.00 C491.31,922.00 497.84,923.13 511.80,930.14 C526.66,937.60 538.08,953.47 541.52,971.46 C543.66,982.60 543.44,1002.60 541.09,1012.18 C536.51,1030.83 525.26,1045.71 509.97,1053.35 C499.87,1058.40 494.64,1059.16 466.25,1059.68 L 442.00 1060.13 L 442.00 991.06 Z" fill="rgb(253,203,43)"/>
</g>
</svg>