<svg xmlns="http://www.w3.org/2000/svg" width="558" height="447" viewBox="0 0 558 447" version="1.1"><path d="M 303.400 17.428 C 298.129 19.723, 278.873 31.568, 271.304 37.172 C 262.589 43.625, 249.803 54.593, 241 63.168 C 232.433 71.513, 217.604 88, 218.665 88 C 219.933 88, 226.745 81.328, 234 72.979 C 241.270 64.613, 258.408 48.769, 268.271 41.296 C 271.681 38.712, 291.162 26.163, 300.500 20.534 C 303.152 18.936, 307 17.995, 307 18.944 C 307 19.361, 304.863 22.584, 302.250 26.108 C 299.637 29.631, 296.640 34.086, 295.589 36.007 C 294.538 37.928, 291.146 43.100, 288.051 47.500 C 275.692 65.072, 269.910 75.033, 255.822 103.021 C 249.045 116.485, 241.958 131.100, 240.073 135.500 C 238.188 139.900, 235.344 146.310, 233.753 149.744 C 231.884 153.779, 231.098 156.732, 231.529 158.092 C 232.124 159.965, 232.693 160.123, 236.686 159.524 C 241.751 158.765, 248.181 155.609, 253.912 151.069 C 258.222 147.656, 259 147.389, 259 149.326 C 259 150.935, 254.834 155, 253.186 155 C 252.533 155, 252 155.417, 252 155.927 C 252 157.038, 238.038 162.480, 232.793 163.414 C 228.864 164.114, 225 167.906, 225 171.062 C 225 174.106, 220.505 176.684, 213.899 177.432 C 210.447 177.822, 207.326 177.726, 206.814 177.214 C 206.258 176.658, 206.546 174.675, 207.543 172.183 C 208.449 169.920, 209.011 167.533, 208.793 166.879 C 208.575 166.225, 207.422 168.236, 206.231 171.348 C 203.145 179.413, 203.753 180.293, 211.819 179.429 C 223.609 178.166, 223.845 178.005, 227.441 168.750 C 228.753 165.372, 229.258 165, 232.532 165 C 236.974 165, 249.579 160.074, 255.420 156.055 C 257.862 154.375, 260.278 151.675, 261.018 149.800 C 261.733 147.985, 263.084 145.825, 264.018 145 C 265.093 144.052, 266.482 139.505, 267.795 132.635 C 271.079 115.454, 282.404 94.208, 292.977 85.393 C 294.885 83.802, 297.235 81.724, 298.198 80.775 C 300.799 78.214, 312.785 72.409, 319.508 70.455 C 326.026 68.560, 338.411 68.875, 345.250 71.110 C 348.869 72.293, 350.337 74, 347.734 74 C 344.982 74, 318.931 87.832, 313.875 91.978 C 294.823 107.598, 283.433 131.348, 286.012 150.074 C 287.361 159.872, 293.988 170.143, 302 174.854 C 306.138 177.287, 307.384 177.498, 317.500 177.479 C 327.699 177.459, 328.973 177.232, 335 174.369 C 344.157 170.018, 352.983 163.179, 359.255 155.576 C 364.817 148.833, 365.026 148.477, 369.286 138.500 C 373.729 128.094, 374.719 124.731, 375.979 115.752 C 377.517 104.788, 376.260 96.204, 371.768 87 C 367.970 79.218, 368.161 79.506, 367.345 80.322 C 366.984 80.682, 368.109 83.795, 369.843 87.239 C 374.878 97.234, 375.705 105.333, 373.339 121.442 C 373.020 123.610, 371.428 128.560, 369.800 132.442 C 368.173 136.324, 366.583 140.400, 366.268 141.500 C 363.930 149.660, 347.883 166.076, 336.797 171.647 C 329.712 175.208, 329.166 175.317, 318 175.407 C 306.869 175.497, 306.348 175.404, 301.757 172.500 C 294.185 167.711, 287 154.282, 287 144.920 C 287 141.019, 288.644 131.998, 289.991 128.500 C 294.177 117.638, 299.598 108.836, 306.734 101.318 C 311.005 96.818, 316.075 92.077, 318 90.783 C 323.430 87.131, 335.807 80.624, 343.163 77.555 C 353.306 73.322, 352.968 71.661, 341.393 68.871 C 332.709 66.777, 331.431 66.704, 324.254 67.894 C 314.481 69.514, 301.532 75.454, 295.550 81.061 C 293.079 83.377, 290.135 85.918, 289.007 86.707 C 281.165 92.200, 266.129 121.648, 265.955 131.855 C 265.930 133.310, 265.262 135.850, 264.471 137.500 C 263.098 140.361, 263.045 140.153, 263.323 133 C 263.570 126.629, 264.329 123.844, 268.366 114.500 C 270.980 108.450, 275.164 100.212, 277.665 96.194 C 285.816 83.097, 303.293 69.967, 318 65.892 C 320.475 65.206, 326.775 64.675, 332 64.711 C 340.350 64.769, 342.469 65.173, 349.500 68.050 C 357.398 71.282, 357.717 71.326, 374.500 71.444 C 396.275 71.598, 406.817 74.327, 419.680 83.137 C 421.979 84.712, 424.617 86, 425.542 86 C 427.912 86, 417.802 79.235, 410.553 75.969 C 400.014 71.222, 391.122 69.675, 375 69.785 C 360.871 69.880, 360.232 69.792, 350.028 66.310 C 339.937 62.867, 339.175 62.758, 329.028 63.284 C 310.554 64.243, 298.739 70.034, 283.707 85.500 C 278.023 91.348, 274.344 96.997, 269.494 107.322 C 263.168 120.788, 261.770 125.523, 261.234 135.281 C 260.856 142.166, 260.388 144.257, 259.064 144.966 C 258.136 145.462, 255.213 147.656, 252.569 149.841 C 247.581 153.963, 238.597 158, 234.411 158 C 233.085 158, 232 157.859, 232 157.687 C 232 157.515, 233.181 154.928, 234.624 151.937 C 236.068 148.947, 239.263 141.785, 241.726 136.022 C 244.188 130.259, 249.982 118.061, 254.601 108.914 C 259.221 99.768, 263 92.061, 263 91.789 C 263 90.542, 280.114 62.089, 288.436 49.500 C 293.526 41.800, 298.386 34.354, 299.235 32.954 C 300.084 31.554, 303.078 27.543, 305.889 24.040 C 308.700 20.538, 311 17.296, 311 16.836 C 311 15.582, 306.909 15.900, 303.400 17.428 M 279.436 36.633 C 275.621 39.181, 272.350 41.656, 272.167 42.133 C 271.983 42.610, 271.359 43, 270.780 43 C 269.068 43, 255.641 55.292, 238.280 72.752 C 219.792 91.347, 218.962 92.783, 221.047 102.578 C 222.414 109, 222.474 109.611, 222.891 121.500 C 223.125 128.176, 223.326 129.003, 224.105 126.500 C 225.071 123.391, 223.617 104.639, 221.963 98.869 C 221.489 97.217, 221.478 94.883, 221.939 93.682 C 223.008 90.898, 240.073 72.481, 250.500 62.856 C 268.168 46.548, 271.266 43.950, 280.022 38.093 C 285.032 34.742, 288.510 32, 287.752 32 C 286.993 32, 283.251 34.085, 279.436 36.633 M 278.766 46.750 C 268.780 58.910, 251.954 82.501, 244.030 95.454 C 233.331 112.941, 224.866 129, 226.347 129 C 226.926 129, 233.748 117.101, 236.379 111.500 C 237.413 109.300, 239.706 105.250, 241.474 102.500 C 243.242 99.750, 245.997 95.394, 247.595 92.820 C 249.193 90.246, 253.762 83.385, 257.750 77.573 C 261.738 71.761, 265 66.743, 265 66.421 C 265 66.100, 266.688 63.739, 268.750 61.175 C 275.777 52.440, 287.329 38.529, 288.666 37.191 C 289.907 35.951, 290.489 34, 289.618 34 C 289.409 34, 284.525 39.737, 278.766 46.750 M 161.882 59.381 C 153.230 62.473, 144.537 70.437, 140.661 78.824 C 138.821 82.805, 138.503 85.284, 138.520 95.500 C 138.538 106.079, 138.842 108.222, 141.093 113.599 C 144.238 121.113, 151.164 131.606, 158.071 139.318 L 163.282 145.137 158.933 149.568 C 156.541 152.006, 154.218 154, 153.772 154 C 153.326 154, 151.200 155.111, 149.049 156.469 C 141.134 161.465, 127.258 167.888, 118.500 170.609 C 110.318 173.151, 108.092 173.409, 94 173.447 C 77.368 173.491, 69.842 171.994, 58.949 166.474 C 52.681 163.298, 43.649 153.353, 41.618 147.392 C 34.445 126.342, 52.084 100.365, 78.123 93.630 C 97.160 88.706, 115.150 92.447, 122.461 102.849 C 125.313 106.906, 125.499 107.736, 125.491 116.336 C 125.483 124.337, 125.143 126.134, 122.815 130.500 C 116.936 141.521, 102.689 148, 84.332 148 C 78.520 148, 76.808 148.338, 76.332 149.578 C 74.584 154.132, 85.442 156.215, 97.242 153.590 C 113.341 150.008, 124.056 142.423, 129.961 130.428 C 132.732 124.799, 132.998 123.383, 132.978 114.377 C 132.961 106.929, 132.503 103.516, 131.113 100.500 C 124.509 86.169, 106.820 77.847, 86.500 79.511 C 69.815 80.877, 58.126 85.545, 48.702 94.603 C 31.246 111.381, 26.383 132.823, 35.686 152 C 39.056 158.948, 49.837 169.870, 56.814 173.406 C 73.316 181.768, 101.323 182.354, 125.800 174.850 C 134.701 172.121, 149.842 164.665, 154.643 160.647 C 160.132 156.053, 168.835 150, 169.952 150 C 170.473 150, 175.368 152.233, 180.829 154.963 C 189.685 159.390, 202.984 164, 206.897 164 C 209.647 164, 207.237 162.938, 199.892 160.915 C 195.827 159.794, 188 156.585, 182.500 153.783 C 176.873 150.916, 171.335 148.761, 169.837 148.853 C 166.943 149.033, 159.564 153.677, 154 158.820 C 142.627 169.333, 108.691 179.581, 87.520 178.896 C 75.301 178.500, 56.676 172.958, 53.128 168.662 C 52.373 167.748, 51.186 167, 50.490 167 C 48.466 167, 38.097 153.468, 35.331 147.217 C 33.021 141.994, 32.834 140.549, 33.177 130.500 C 33.504 120.906, 33.919 118.733, 36.417 113.500 C 39.954 106.091, 41.891 103.477, 49.500 95.846 C 56.612 88.713, 60.631 86.479, 71.993 83.344 C 84.477 79.898, 98.197 80.046, 109.277 83.746 C 116.085 86.019, 118.345 87.350, 122.412 91.479 C 125.114 94.222, 128.430 98.882, 129.782 101.835 C 133.225 109.357, 132.679 120.806, 128.468 129.340 C 123.158 140.104, 112.801 148.075, 99.500 151.637 C 94.332 153.021, 83.361 153.460, 80.582 152.393 C 77.130 151.068, 79.416 150.267, 88.250 149.706 C 105.664 148.599, 118.100 142.485, 123.244 132.500 C 131.755 115.982, 127.500 100.104, 112.787 93.473 C 107.075 90.899, 105.449 90.637, 95 90.612 C 75.803 90.566, 63.668 95.354, 52.092 107.539 C 42.531 117.606, 39.738 123.812, 39.196 136.198 C 38.821 144.765, 39.037 146.445, 41.049 150.601 C 48.793 166.598, 68.006 175.408, 94.500 175.110 C 111.828 174.915, 126.439 171.355, 138.199 164.463 C 141.449 162.558, 144.301 161, 144.539 161 C 145.572 161, 155.871 154.287, 159.750 151.085 C 165.232 146.559, 165.200 144.324, 159.566 138.267 C 157.128 135.645, 153.901 131.700, 152.395 129.500 C 150.890 127.300, 148.434 123.700, 146.938 121.500 C 142.557 115.057, 141.122 110.527, 140.015 99.643 C 139.081 90.467, 139.172 88.813, 140.883 83.841 C 144.261 74.022, 148.735 68.404, 157.500 62.977 C 161.123 60.734, 162.537 60.500, 172.500 60.500 C 183.422 60.500, 183.551 60.528, 190.726 64.448 C 197.755 68.287, 209.919 79.234, 213.850 85.258 C 214.841 86.775, 215.936 87.730, 216.286 87.381 C 218.516 85.151, 201.751 68.238, 192.473 63.359 C 182.701 58.220, 169.819 56.544, 161.882 59.381 M 168 68.057 C 160.143 71.336, 152.850 79.784, 149.592 89.381 C 147.617 95.197, 147.539 106.184, 149.422 113.201 C 151.376 120.482, 157.755 132.975, 160.902 135.683 C 162.331 136.913, 164.528 138.791, 165.785 139.857 C 167.130 140.998, 168.899 141.578, 170.087 141.267 C 172.057 140.752, 192 121.263, 192 119.854 C 192 119.463, 192.591 118.548, 193.314 117.821 C 194.036 117.095, 197.343 113.350, 200.662 109.500 C 203.980 105.650, 208.060 101.048, 209.727 99.274 C 213.853 94.882, 214.442 91.308, 211.689 87.368 C 206.532 79.988, 199.263 73.248, 192 69.111 C 188.907 67.349, 171.525 66.586, 168 68.057 M 167.500 70.386 C 160.994 73.645, 160.050 74.481, 155.685 80.848 C 146.814 93.790, 146.825 106.927, 155.721 124.266 C 160.006 132.617, 166.510 140, 169.582 140 C 172.053 140, 212 95.115, 212 92.338 C 212 90.169, 205.952 82.133, 200.625 77.222 C 193.938 71.058, 188.855 68.859, 180.082 68.335 C 173.453 67.939, 171.871 68.197, 167.500 70.386 M 444.500 73.940 C 439.682 76.224, 427.090 86, 428.967 86 C 429.697 86, 432.140 84.514, 434.397 82.698 C 439.395 78.676, 445.196 75.262, 447.777 74.825 C 451.532 74.189, 450.311 76.558, 444.958 80.298 C 437.704 85.365, 433.993 88.748, 434.032 90.258 C 434.050 90.958, 434.693 90.668, 435.507 89.593 C 436.300 88.545, 440.673 85.140, 445.225 82.027 C 450.681 78.295, 453.609 75.623, 453.820 74.183 C 454.084 72.376, 453.654 72.004, 451.320 72.022 C 449.769 72.034, 446.700 72.897, 444.500 73.940 M 372 75.660 C 366.085 76.865, 368.783 77.523, 378.276 77.189 C 385.005 76.952, 391.017 77.361, 395.863 78.385 C 403.391 79.974, 420.187 87.573, 420.777 89.656 C 420.957 90.292, 417.704 94.770, 413.548 99.608 C 409.393 104.445, 404.772 110.225, 403.279 112.451 C 401.786 114.678, 398 120.100, 394.864 124.500 C 386.805 135.809, 373.289 158.466, 366.212 172.534 C 355.961 192.908, 343.747 209.053, 332.891 216.575 C 327.050 220.624, 320.952 220.820, 305.357 217.461 C 289.767 214.104, 281.540 213.761, 277.653 216.308 C 274.118 218.624, 273.417 220.541, 275.012 223.522 C 277.612 228.380, 281.675 229.249, 300.896 229.054 C 367.833 228.376, 362.610 228.616, 374.935 225.646 C 395.243 220.751, 408.490 212.834, 423.859 196.407 C 434.322 185.225, 441.881 169.869, 445.465 152.517 C 448.616 137.262, 446.537 116.855, 440.640 105.151 C 434.716 93.394, 433.825 91.842, 433.304 92.363 C 432.998 92.669, 434.584 96.650, 436.829 101.210 C 443.488 114.735, 445 121.217, 445 136.239 C 445 143.405, 444.520 151.120, 443.934 153.384 C 442.237 159.938, 439.798 167.330, 438.616 169.500 C 438.017 170.600, 436.620 173.835, 435.513 176.688 C 431.821 186.203, 417.668 201.820, 404.748 210.635 C 385.350 223.870, 371.967 226.898, 331.500 227.208 C 284.768 227.565, 283.723 227.540, 280.592 225.964 C 276.024 223.664, 275.114 221.441, 277.689 218.867 C 279.492 217.063, 280.978 216.713, 286.675 216.749 C 290.429 216.773, 297.604 217.727, 302.619 218.870 C 307.635 220.012, 315.361 221.012, 319.789 221.093 C 327.086 221.225, 328.337 220.953, 333.169 218.173 C 345.052 211.339, 356.008 196.875, 368.873 171.038 C 372.833 163.084, 376.657 155.884, 377.371 155.038 C 378.084 154.192, 381.060 149.472, 383.985 144.548 C 395.130 125.783, 407.111 108.802, 415.846 99.389 C 425.006 89.518, 424.820 88.192, 413.528 82.900 C 409.025 80.790, 402.676 78.334, 399.420 77.442 C 393.454 75.808, 376.635 74.715, 372 75.660 M 352 80.840 C 342.297 84.975, 334.401 90.380, 325.649 98.877 C 317.761 106.536, 307.809 120.051, 304.571 127.500 C 303.615 129.700, 302.139 133.075, 301.292 135 C 300.350 137.138, 299.551 142.845, 299.239 149.663 C 298.770 159.924, 298.907 161.113, 300.935 164.395 C 305.067 171.081, 308.249 172.504, 319 172.472 C 327.091 172.448, 329.330 172.059, 334.093 169.846 C 337.170 168.418, 340.545 166.529, 341.593 165.649 C 342.642 164.769, 345.170 162.800, 347.210 161.274 C 351.889 157.776, 360.333 147.250, 363.543 140.915 C 372.936 122.378, 374.234 102.802, 367.117 87 C 362.993 77.841, 360.970 77.017, 352 80.840 M 348.500 84.379 C 337.289 89.784, 325.217 100.226, 315.809 112.658 C 305.495 126.287, 299.984 140.361, 300.016 152.997 C 300.047 165.266, 305.858 171, 318.259 171 C 338.914 171, 358.820 153.256, 367.226 127.352 C 370.218 118.129, 370.367 102.391, 367.550 93 C 365.097 84.820, 362.118 80.022, 359.500 80.033 C 358.400 80.037, 353.450 81.993, 348.500 84.379 M 425.941 99.250 C 424.766 100.487, 421.711 104.745, 419.152 108.712 C 416.594 112.679, 413.523 117.404, 412.329 119.212 C 411.136 121.020, 406.739 129.250, 402.560 137.500 C 389.281 163.712, 375.615 186.354, 371.662 188.693 C 370.912 189.137, 368.662 191.797, 366.660 194.604 C 362.258 200.780, 344.663 216.988, 342.342 217.007 C 340.645 217.020, 335.840 220.783, 336.779 221.363 C 338.132 222.199, 348.366 215.382, 355.298 209.027 C 362.051 202.836, 374.354 188.475, 380.463 179.654 C 386.376 171.114, 395.998 154.170, 403.461 139.154 C 409.593 126.816, 419.578 110.041, 424.979 103 C 429.686 96.865, 430.234 94.730, 425.941 99.250 M 431.057 99.604 C 434.558 103.869, 440.427 121.677, 441.403 131 C 443.239 148.521, 434.315 174.887, 421.502 189.801 C 403.379 210.895, 381.330 221.330, 351.500 222.930 L 337.500 223.680 348.808 223.840 C 377.143 224.241, 397.460 216.454, 415.962 198.103 C 426.179 187.969, 434.911 174.979, 437.065 166.708 C 437.525 164.944, 438.805 160.426, 439.910 156.668 C 444.583 140.778, 444.435 131.987, 439.213 115 C 436.163 105.082, 433.115 98.838, 431 98.177 C 429.702 97.771, 429.709 97.963, 431.057 99.604 M 213.301 101.367 C 211.996 102.600, 204.413 110.346, 196.500 118.528 C 193.750 121.371, 188.800 126.766, 185.500 130.516 C 182.200 134.265, 178.166 138.587, 176.536 140.119 C 174.906 141.652, 173.925 143.258, 174.355 143.689 C 175.147 144.480, 178.729 140.890, 196.050 121.945 C 201.302 116.200, 207.782 109.131, 210.451 106.235 C 213.119 103.339, 215.122 100.804, 214.901 100.601 C 214.681 100.399, 213.960 100.743, 213.301 101.367 M 216.445 103.250 C 216.818 104.487, 217.380 111.595, 217.694 119.043 C 218.290 133.182, 216.904 144.142, 213.301 153.789 L 211.699 158.077 207.099 157.460 C 198.909 156.361, 191.674 153.936, 183.173 149.441 C 178.593 147.020, 175.016 145.592, 175.225 146.269 C 175.565 147.376, 182.460 151.089, 192 155.302 C 193.925 156.152, 198.634 157.573, 202.464 158.459 C 209.103 159.995, 209.547 159.983, 211.964 158.199 C 216.166 155.097, 219.234 141.517, 219.352 125.500 C 219.458 111.101, 218.410 101, 216.811 101 C 216.194 101, 216.044 101.920, 216.445 103.250 M 423.686 214.794 C 414.928 217.898, 406 227.031, 406 232.886 C 406 237.016, 409.681 235.350, 412.687 229.860 C 414.234 227.033, 417.314 223.424, 419.531 221.840 C 424.596 218.221, 434.300 216.409, 439.790 218.057 L 443.500 219.171 443.500 226.677 C 443.500 230.806, 443.780 234.358, 444.122 234.572 C 445.277 235.292, 445.877 228.057, 444.935 224.772 C 444.421 222.980, 444 221.111, 444 220.620 C 444 219.667, 456.702 220.369, 457.711 221.377 C 458.040 221.706, 456.327 223.731, 453.905 225.877 C 451.482 228.023, 448.665 231.291, 447.644 233.139 C 445.940 236.227, 446.177 236.106, 450.568 231.659 C 453.196 228.997, 456.329 226.175, 457.531 225.388 C 459.031 224.405, 459.577 223.238, 459.275 221.659 C 458.868 219.530, 459.148 219.376, 463.078 219.567 C 467.917 219.802, 470.327 222.130, 472.020 228.205 C 472.886 231.312, 472.708 232.643, 470.916 236.455 C 469.741 238.955, 468.379 241, 467.890 241 C 467.400 241, 467 241.505, 467 242.122 C 467 244.287, 470.305 240.546, 472.231 236.201 C 474.261 231.622, 473.965 227.254, 471.372 223.527 C 470.618 222.443, 470 220.305, 470 218.777 C 470 215.945, 468.284 215.116, 466.376 217.024 C 465.677 217.723, 463.339 217.533, 459.014 216.425 C 454.541 215.279, 450.839 214.998, 446.428 215.471 C 441.897 215.956, 438.908 215.708, 435.554 214.570 C 429.927 212.659, 429.696 212.664, 423.686 214.794 M 427.952 221.344 C 420.948 225.600, 418.138 228.076, 415.093 232.673 C 412.473 236.629, 412 238.288, 412 243.525 C 412 248.702, 412.399 250.138, 414.452 252.354 C 416.485 254.547, 417.775 255, 421.992 255 C 427.452 255, 433.203 252.647, 436.411 249.100 C 439.390 245.806, 437.637 245.603, 434.171 248.840 C 430.344 252.415, 424.623 254.029, 420.495 252.697 C 416.918 251.544, 415 250.144, 415 248.686 C 415 248.099, 415.563 248.348, 416.250 249.240 C 417.826 251.285, 419.599 251.589, 423.961 250.563 C 433.103 248.411, 441.099 235.214, 440.139 223.859 C 440.032 222.599, 432.957 218.591, 431.730 219.094 C 431.603 219.146, 429.904 220.159, 427.952 221.344 M 432.239 224.035 C 426.218 226.709, 418.393 234.829, 417.058 239.785 C 414.908 247.769, 418.902 251.633, 425.693 248.141 C 431.247 245.285, 434.759 241.116, 437.011 234.709 C 439.090 228.794, 439.409 226.228, 438.393 223.582 C 437.656 221.661, 437.565 221.668, 432.239 224.035 M 458.070 228.552 C 454.087 234.452, 451.723 239.057, 452.353 239.686 C 452.628 239.961, 453.622 238.682, 454.563 236.843 C 456.385 233.283, 461.768 225.987, 463.474 224.765 C 464.074 224.336, 463.802 224.024, 462.821 224.015 C 461.897 224.007, 459.759 226.048, 458.070 228.552 M 465.755 228.798 C 466.174 233.162, 465.899 234.082, 463.306 236.983 C 461.371 239.149, 459.055 240.495, 456.443 240.973 C 453.259 241.554, 452.862 241.849, 454.382 242.504 C 455.501 242.987, 457.017 242.846, 458.119 242.158 C 459.139 241.521, 460.569 241, 461.298 241 C 462.027 241, 463.680 239.572, 464.970 237.826 C 467.520 234.377, 468.343 226.944, 466.391 224.992 C 465.579 224.179, 465.409 225.199, 465.755 228.798 M 521.061 236.939 C 519.928 238.072, 519 239.434, 519 239.965 C 519 241.854, 512.625 248.151, 508.668 250.169 C 503.917 252.593, 494 261.704, 494 263.645 C 494 264.490, 492.848 265, 490.941 265 C 489.156 265, 488.139 265.417, 488.500 266 C 488.840 266.550, 490.715 267, 492.666 267 C 495.481 267, 496.089 266.675, 495.611 265.428 C 494.965 263.744, 500.676 256.050, 502.595 256.018 C 503.197 256.008, 504.505 255.100, 505.500 254 C 506.495 252.900, 507.939 252, 508.708 252 C 510.613 252, 517 246.801, 517 245.250 C 517 244.563, 517.353 244, 517.784 244 C 518.216 244, 519.366 242.650, 520.341 241 C 522.464 237.405, 525 237.038, 525 240.326 C 525 242.730, 521.860 246.221, 518.687 247.344 C 517.689 247.697, 517.158 248.446, 517.505 249.009 C 518.330 250.342, 523.745 247.239, 525.687 244.321 C 527.604 241.440, 527.046 235.620, 524.811 235.197 C 523.883 235.021, 522.195 235.805, 521.061 236.939 M 190.500 243.494 C 176.980 248.262, 175.316 271.941, 188.039 278.520 C 192.059 280.599, 198.868 280.378, 202.696 278.044 C 209.600 273.834, 211.179 266.760, 205.342 266.194 C 203.372 266.002, 201.680 266.485, 200.842 267.478 C 197.400 271.558, 196.580 272.089, 194.147 271.804 C 190.706 271.402, 189.033 267.872, 189.015 260.973 C 188.996 253.823, 190.971 250.769, 195.339 251.194 C 197.625 251.416, 198.845 252.253, 199.798 254.250 C 200.901 256.564, 201.735 257, 205.055 257 C 208.805 257, 209 256.846, 209 253.882 C 209 250.209, 202.508 243, 199.199 243 C 198.080 243, 196.564 242.794, 195.832 242.542 C 195.099 242.290, 192.700 242.718, 190.500 243.494 M 236.655 243.460 C 231.682 245.232, 228.346 248.422, 226.906 252.784 C 225.324 257.579, 226.233 270.181, 228.400 273.488 C 234.256 282.425, 249.354 282.038, 254.420 272.821 C 256.856 268.390, 256.021 266, 252.039 266 C 249.930 266, 248.194 266.921, 246.300 269.048 C 244.213 271.390, 242.885 272.027, 240.565 271.798 C 236.673 271.414, 235.034 268.218, 235.015 260.973 C 234.996 253.877, 236.876 251, 241.531 251 C 244.317 251, 245.235 251.554, 246.500 254 C 247.776 256.468, 248.673 257, 251.557 257 C 256.045 257, 256.963 254.809, 254.420 250.167 C 250.794 243.547, 243.812 240.912, 236.655 243.460 M 72.667 243.667 C 72.300 244.033, 72 252.085, 72 261.560 C 72 280.093, 71.973 280, 77.382 280 C 80.750 280, 82 278.074, 82 272.888 L 82 268.176 86.250 267.476 C 92.959 266.371, 96.741 264.401, 98.434 261.128 C 101.755 254.705, 99.507 247.865, 92.961 244.480 C 90.039 242.969, 74.007 242.326, 72.667 243.667 M 103.714 243.620 C 103.321 244.012, 103 251.818, 103 260.967 C 103 278.757, 103.327 280.012, 107.950 279.985 C 112.980 279.954, 113.068 279.604, 112.774 260.926 L 112.500 243.500 108.464 243.203 C 106.244 243.040, 104.106 243.227, 103.714 243.620 M 118.599 243.840 C 117.628 245.411, 117.805 278.205, 118.790 279.190 C 119.321 279.721, 121.049 280.009, 122.628 279.828 C 125.419 279.509, 125.503 279.331, 125.622 273.500 L 125.743 267.500 125.122 272.500 C 124.562 277.001, 124.250 277.500, 122 277.500 L 119.500 277.500 119.500 261.500 L 119.500 245.500 127.547 245.213 C 134.584 244.962, 136.027 245.217, 139.047 247.246 C 142.046 249.261, 142.540 250.180, 142.803 254.231 C 143.039 257.867, 142.653 259.347, 141.053 260.947 C 138.361 263.639, 138.463 266.007, 141.536 272.071 C 144.357 277.638, 144.176 278.947, 140.678 278.279 C 139.151 277.987, 137.276 276.087, 135.404 272.933 C 131.833 266.917, 130.167 266.424, 133.096 272.250 C 136.760 279.537, 137.280 279.842, 146.027 279.842 C 154.267 279.842, 155.266 279.372, 156.306 275 L 156.901 272.500 154.867 275.250 C 153.624 276.930, 151.893 278, 150.417 278 C 149.087 278, 148 277.757, 148 277.459 C 148 276.321, 152.306 263.451, 153.005 262.500 C 154.158 260.930, 156.252 253.919, 155.725 253.391 C 155.463 253.130, 153.325 258.110, 150.973 264.458 C 148.620 270.806, 146.309 276, 145.837 276 C 145.365 276, 143.809 273.617, 142.381 270.704 L 139.783 265.408 142.392 261.564 C 146.817 255.044, 145.010 247.156, 138.466 244.421 C 134.780 242.881, 119.468 242.433, 118.599 243.840 M 158.263 244.250 C 157.723 244.938, 157.009 247.075, 156.676 249 L 156.071 252.500 157.795 249 C 159.170 246.208, 160.102 245.500, 162.401 245.500 C 165.106 245.500, 165.522 246.087, 169.133 255 C 171.250 260.225, 173.380 265.400, 173.866 266.500 C 176.154 271.673, 177 274.249, 177 276.047 C 177 278.988, 173.005 278.514, 170.275 275.250 L 167.974 272.500 169.217 275.500 C 169.900 277.150, 170.918 278.831, 171.480 279.235 C 173.307 280.551, 178.043 280.052, 178.646 278.480 C 179.141 277.190, 169.642 250.013, 166.856 244.750 C 165.762 242.684, 159.767 242.335, 158.263 244.250 M 213.667 243.667 C 213.300 244.033, 213 252.125, 213 261.648 L 213 278.962 215.655 279.628 C 221.014 280.973, 221.473 279.721, 221.786 262.892 C 222.142 243.786, 221.978 243, 217.648 243 C 215.825 243, 214.033 243.300, 213.667 243.667 M 266.608 249.750 C 260.701 265.286, 256.821 278.221, 257.779 279.179 C 258.317 279.717, 260.003 280.009, 261.527 279.828 C 264.047 279.530, 264.837 278.690, 267.011 274 C 267.464 273.021, 269.476 272.396, 272.801 272.200 C 277.676 271.912, 277.970 272.042, 279.588 275.200 C 280.518 277.015, 281.779 278.831, 282.390 279.235 C 284.241 280.460, 289.029 280.087, 289.571 278.675 C 289.974 277.626, 283.584 259.250, 277.949 245.250 C 277.225 243.451, 276.254 243, 273.109 243 L 269.175 243 266.608 249.750 M 293.200 244.200 C 291.854 245.546, 291.778 254.856, 293.074 259.500 C 293.722 261.818, 293.796 261.432, 293.403 257.804 C 293.123 255.222, 293.397 251.239, 294.012 248.954 L 295.131 244.800 303.652 245.150 C 311.639 245.478, 312.331 245.684, 314.697 248.434 C 316.872 250.962, 317.136 251.994, 316.602 255.887 C 316.035 260.025, 316.107 260.241, 317.459 258.453 C 320.933 253.859, 318.435 246.915, 312.401 244.394 C 308.271 242.668, 294.867 242.533, 293.200 244.200 M 333.246 244.250 C 332.697 244.938, 331.553 247.750, 330.704 250.500 C 329.855 253.250, 327.318 260.445, 325.065 266.489 C 322.813 272.533, 321.187 278.046, 321.453 278.739 C 321.959 280.056, 325.734 280.423, 328.370 279.412 C 329.213 279.088, 330.417 277.266, 331.045 275.363 C 332.172 271.949, 332.258 271.906, 337.335 272.201 C 341.947 272.469, 342.631 272.813, 343.896 275.500 C 344.673 277.150, 345.802 278.831, 346.404 279.235 C 348.213 280.447, 353.027 280.093, 353.558 278.709 C 353.831 277.998, 352.435 273.161, 350.456 267.959 C 348.478 262.756, 345.929 255.800, 344.793 252.500 C 343.657 249.200, 342.044 245.713, 341.209 244.750 C 339.450 242.723, 334.704 242.425, 333.246 244.250 M 188.673 246.109 C 178.842 251.292, 178.222 270.659, 187.708 276.255 C 193.453 279.645, 201.311 278.469, 205.228 273.633 C 209.423 268.454, 205.675 265.381, 200.822 270.020 C 197.318 273.368, 192.117 274.051, 189.956 271.447 C 187.963 269.046, 187.045 261.015, 188.214 256.209 C 189.961 249.030, 196.975 246.980, 200.642 252.576 C 202.543 255.478, 207.018 255.955, 206.967 253.250 C 206.927 251.163, 204.185 247.691, 201.459 246.278 C 197.254 244.099, 192.603 244.037, 188.673 246.109 M 238.479 244.931 C 231.104 246.695, 227 252.630, 227 261.531 C 227 274.118, 237.829 282.189, 247.854 277.075 C 253.546 274.171, 255.622 267.123, 250.818 267.015 C 250.443 267.007, 249.175 268.350, 248 270 C 246.138 272.614, 245.252 273, 241.101 273 C 235.538 273, 234.520 271.691, 233.546 263.288 C 232.925 257.934, 234.731 251.426, 237.289 249.800 C 239.975 248.093, 244.186 249.032, 247.154 252 C 250.594 255.440, 254 255.989, 254 253.104 C 254 251.008, 247.733 245, 245.547 245 C 244.786 245, 243.564 244.822, 242.832 244.604 C 242.099 244.387, 240.141 244.534, 238.479 244.931 M 466 244.370 C 466 244.818, 466.900 246.329, 468 247.727 C 469.311 249.394, 470.022 251.860, 470.063 254.885 C 470.113 258.479, 470.317 259.029, 470.986 257.373 C 472.160 254.465, 470.592 248.148, 468.071 245.627 C 466.932 244.488, 466 243.922, 466 244.370 M 73.482 247.250 C 73.175 248.488, 73.054 255.800, 73.212 263.500 C 73.497 277.365, 73.523 277.503, 75.865 277.835 C 78.792 278.249, 79.936 277.168, 80.547 273.413 C 81.721 266.198, 81.854 266, 85.551 266 C 92.798 266, 99.005 261.284, 98.996 255.785 C 98.991 252.465, 95.405 247.105, 92.434 245.975 C 91.024 245.439, 86.308 245, 81.954 245 C 74.576 245, 74 245.153, 73.482 247.250 M 105.476 246.040 C 104.356 247.851, 104 274.131, 105.068 276.126 C 105.619 277.157, 107.137 278, 108.441 278 C 110.536 278, 110.895 277.403, 111.518 272.870 C 111.906 270.048, 111.904 262.623, 111.513 256.370 C 110.822 245.315, 110.738 245, 108.460 245 C 107.172 245, 105.829 245.468, 105.476 246.040 M 214.884 252.250 C 214.820 256.238, 214.624 262.875, 214.448 267 C 214.273 271.125, 214.356 275.288, 214.632 276.250 C 215.164 278.101, 218.478 278.653, 219.466 277.056 C 219.787 276.536, 220.280 270.013, 220.563 262.561 C 221.107 248.193, 220.452 245, 216.965 245 C 215.203 245, 214.988 245.749, 214.884 252.250 M 268.989 248.250 C 267.899 250.037, 267.006 252.084, 267.004 252.798 C 267.002 253.512, 266.125 255.908, 265.055 258.122 C 263.986 260.335, 262.559 264.609, 261.886 267.619 C 261.212 270.629, 260.288 273.322, 259.831 273.605 C 259.374 273.887, 259 274.991, 259 276.059 C 259 279.206, 262.488 278.360, 265.432 274.500 C 267.822 271.367, 268.594 271.002, 272.801 271.022 C 277.675 271.045, 281.172 272.965, 282.324 276.250 C 283.043 278.303, 288 278.686, 288 276.690 C 288 275.969, 286.829 272.481, 285.399 268.940 C 283.968 265.398, 282.004 260.475, 281.034 258 C 276.098 245.404, 275.860 245, 273.377 245 C 271.735 245, 270.341 246.033, 268.989 248.250 M 334.521 245.966 C 334.193 246.497, 332.337 251.109, 330.397 256.216 C 322.328 277.451, 322.217 278, 325.960 278 C 327.006 278, 328.696 276.486, 329.867 274.500 C 331.736 271.333, 332.357 271, 336.384 271 C 342.266 271, 343.784 271.682, 345.563 275.121 C 347.124 278.140, 350.403 278.997, 351.314 276.624 C 351.604 275.868, 351.270 274.147, 350.571 272.799 C 349.872 271.452, 349.053 269.258, 348.752 267.925 C 348.052 264.829, 341 247.902, 339.722 246.250 C 338.577 244.769, 335.369 244.594, 334.521 245.966 M 448.278 246.250 C 447.746 246.938, 447.015 248.400, 446.653 249.500 C 446.082 251.239, 446.257 251.192, 447.998 249.139 C 449.099 247.841, 450 246.378, 450 245.889 C 450 244.656, 449.417 244.778, 448.278 246.250 M 451.500 246 C 451.840 246.550, 454.353 247, 457.084 247 C 461.546 247, 462.152 247.271, 463.066 249.674 C 465.859 257.020, 458.253 269, 450.796 269 C 445.288 269, 444.390 263.301, 448.985 257.518 C 451.951 253.787, 452.125 252, 449.525 252 C 447.582 252, 442.098 259.262, 441.398 262.762 C 440.711 266.196, 443.034 271.413, 445.945 272.970 C 448.664 274.425, 455.472 274.248, 459.368 272.620 C 462.634 271.255, 470 264.484, 470 262.847 C 470 261.288, 467.945 261.979, 467.314 263.750 C 466.467 266.128, 461.887 269.920, 459.809 269.964 C 458.879 269.984, 457.840 270.450, 457.500 271 C 457.160 271.550, 455.896 271.986, 454.691 271.968 C 452.523 271.937, 452.521 271.921, 454.500 270.482 C 458.874 267.300, 460.696 265.325, 462.938 261.330 C 464.808 257.998, 465.170 256.202, 464.741 252.391 C 464.408 249.441, 463.519 247.122, 462.410 246.311 C 460.299 244.767, 450.567 244.490, 451.500 246 M 437.086 251.599 C 433.288 259.309, 427.873 265.759, 423.273 268.050 C 417.580 270.886, 415.509 270.377, 415.467 266.131 C 415.417 260.972, 410.823 258.319, 407.571 261.571 C 405.197 263.946, 405.619 268.709, 408.455 271.545 C 412.728 275.819, 423.429 274.664, 431.079 269.102 C 434.533 266.591, 441.751 259, 440.685 259 C 440.398 259, 437.797 261.020, 434.904 263.489 C 432.012 265.958, 429.387 267.697, 429.072 267.352 C 428.758 267.008, 429.063 266.525, 429.750 266.280 C 430.438 266.034, 431 265.417, 431 264.908 C 431 264.399, 432.350 262.119, 434 259.841 C 435.650 257.564, 437 255.240, 437 254.679 C 437 254.117, 437.714 252.868, 438.588 251.903 C 439.461 250.938, 440.023 249.373, 439.838 248.424 C 439.617 247.295, 438.665 248.393, 437.086 251.599 M 528.078 256.689 C 522.156 262.999, 519.162 266.934, 519.492 267.974 C 520.166 270.098, 514.997 273.243, 512.955 271.951 C 510.706 270.528, 509.617 270.834, 511 272.500 C 512.639 274.475, 515.517 274.398, 519.096 272.284 C 521.929 270.611, 523.055 268, 520.943 268 C 519.430 268, 522.066 264.504, 525.568 261.866 C 527.181 260.651, 528.004 260.208, 527.399 260.880 C 526.163 262.251, 526.709 266.702, 528.227 267.640 C 528.818 268.006, 528.964 267.462, 528.590 266.282 C 528.196 265.043, 528.737 263.332, 530.051 261.662 C 531.262 260.123, 531.897 258.252, 531.565 257.205 C 531.179 255.988, 532.096 254.330, 534.383 252.113 C 538.280 248.337, 539.372 249.070, 537.882 254.464 C 537.146 257.132, 537.157 258.557, 537.920 259.320 C 538.693 260.093, 539 259.473, 539 257.134 C 539 255.338, 539.448 253.031, 539.996 252.007 C 541.176 249.802, 540.327 247, 538.479 247 C 537.759 247, 533.079 251.360, 528.078 256.689 M 82.550 249.919 C 82.128 250.602, 82.983 251, 84.870 251 C 86.513 251, 88.564 251.707, 89.429 252.571 C 90.293 253.436, 91 253.716, 91 253.194 C 91 250.770, 83.758 247.964, 82.550 249.919 M 127 250.008 C 125.886 250.722, 126.447 250.973, 129.179 250.985 C 132.938 251, 136 253.043, 136 255.536 C 136 257.469, 132.438 259.185, 129.201 258.812 C 126.986 258.556, 126.389 257.870, 125.882 255 C 125.366 252.082, 125.241 251.944, 125.132 254.168 C 124.904 258.782, 125.910 260, 129.952 260 C 134.660 260, 137.376 257.347, 136.449 253.653 C 135.861 251.311, 135.053 250.784, 130 249.443 C 129.175 249.225, 127.825 249.478, 127 250.008 M 301.219 250.559 C 296.922 253.569, 299.478 259, 305.191 259 C 307.883 259, 308.967 258.431, 310.019 256.465 C 311.222 254.217, 311.156 253.721, 309.438 252.070 C 306.575 249.321, 303.733 248.798, 301.219 250.559 M 482.432 249.964 C 479.773 251.040, 470.822 260.967, 471.278 262.334 C 472.371 265.614, 477.548 261.706, 480.661 255.250 C 482.232 251.991, 486.092 250.721, 487.500 253 C 488.278 254.259, 490 254.308, 490 253.071 C 490 251.721, 487.055 248.989, 485.679 249.063 C 485.030 249.098, 483.570 249.503, 482.432 249.964 M 492.022 251.473 C 490.100 253.790, 491.449 254.407, 494.321 252.526 C 498.331 249.898, 498.987 252.729, 495.160 256.149 C 493.422 257.701, 492.014 259.541, 492.030 260.236 C 492.048 260.957, 492.499 260.748, 493.080 259.750 C 493.641 258.788, 494.587 258, 495.182 258 C 496.857 258, 500.107 253.797, 499.778 252.056 C 499.368 249.889, 493.691 249.463, 492.022 251.473 M 519 250.934 C 519 251.520, 519.900 252, 521 252 C 522.100 252, 523 252.472, 523 253.050 C 523 254.508, 520.076 260.138, 518.219 262.256 C 517.372 263.222, 516.901 264.235, 517.173 264.506 C 518.088 265.422, 525.171 254.128, 524.825 252.305 C 524.455 250.354, 519 249.070, 519 250.934 M 301 254 C 301 256.837, 301.219 257, 305.031 257 C 307.850 257, 309.253 256.505, 309.694 255.355 C 310.510 253.229, 307.498 251, 303.809 251 C 301.355 251, 301 251.379, 301 254 M 80.548 253.250 C 80.129 254.213, 80.129 255.787, 80.548 256.750 C 81.273 258.417, 81.329 258.417, 81.728 256.750 C 81.958 255.787, 81.958 254.213, 81.728 253.250 C 81.329 251.583, 81.273 251.583, 80.548 253.250 M 507.793 255.858 C 504.965 258.618, 501.556 266.608, 502.862 267.415 C 503.277 267.671, 504.146 265.901, 504.794 263.481 C 505.565 260.598, 507.009 258.314, 508.985 256.853 C 510.643 255.627, 512 254.259, 512 253.812 C 512 252.431, 510.614 253.105, 507.793 255.858 M 90.204 257.045 C 89.350 258.413, 87.860 259.005, 85.242 259.015 C 82.951 259.025, 81.994 259.344, 82.773 259.839 C 84.844 261.153, 89.529 259.984, 90.883 257.817 C 91.573 256.710, 91.978 255.645, 91.781 255.448 C 91.585 255.252, 90.875 255.970, 90.204 257.045 M 163.561 259 C 164.380 262.085, 166 264.005, 166 261.891 C 166 261.061, 165.302 259.509, 164.448 258.441 C 162.957 256.576, 162.922 256.597, 163.561 259 M 270.496 258.430 C 270.223 259.293, 269.789 260.675, 269.531 261.500 C 269.274 262.325, 269.450 263, 269.923 263 C 270.396 263, 271.066 261.875, 271.411 260.500 C 271.756 259.125, 272.491 258, 273.044 258 C 273.597 258, 274.477 259.125, 275 260.500 C 276.275 263.853, 277.009 263.685, 276.096 260.250 C 275.263 257.114, 271.316 255.831, 270.496 258.430 M 334.002 259.496 C 332.776 262.719, 332.767 263, 333.892 263 C 334.382 263, 335.066 261.875, 335.411 260.500 C 336.254 257.140, 337.577 257.349, 338.866 261.045 C 339.720 263.495, 339.641 264.200, 338.464 264.652 C 337.659 264.961, 336.325 264.955, 335.500 264.638 C 334.675 264.322, 334 264.499, 334 265.031 C 334 266.595, 338.638 266.142, 340.050 264.440 C 341.904 262.206, 340.114 257.594, 337.231 257.181 C 335.591 256.946, 334.739 257.556, 334.002 259.496 M 159.500 260 C 159.125 261.183, 159.042 262.376, 159.317 262.651 C 159.592 262.926, 160.125 262.183, 160.500 261 C 160.875 259.817, 160.958 258.624, 160.683 258.349 C 160.408 258.074, 159.875 258.817, 159.500 260 M 477.154 263.896 C 472.863 270.014, 472.093 272.481, 474.250 273.206 C 476.940 274.111, 480.807 272.331, 483.933 268.750 C 488.102 263.975, 486.413 263.800, 482.083 268.558 C 478.626 272.357, 475.282 272.839, 475.803 269.464 C 475.969 268.384, 477.457 265.538, 479.110 263.140 C 480.762 260.742, 481.932 258.599, 481.711 258.377 C 481.489 258.156, 479.438 260.639, 477.154 263.896 M 532.708 262.157 C 532.323 263.619, 531.753 265.644, 531.441 266.657 C 531.128 267.671, 531.604 267.237, 532.499 265.692 C 533.393 264.148, 533.963 262.123, 533.766 261.192 C 533.515 260.004, 533.200 260.292, 532.708 262.157 M 540.683 260.650 C 540.308 261.026, 540 262.366, 540 263.628 C 540 266.173, 537.056 269.327, 532.610 271.545 C 528.839 273.426, 527.078 273.381, 524.829 271.345 C 523.798 270.412, 523 270.179, 523 270.810 C 523 272.309, 526.307 274, 529.238 274 C 535.161 274, 545.287 263.887, 542.328 260.928 C 541.799 260.399, 541.059 260.274, 540.683 260.650 M 316.443 263.223 C 318.752 266.519, 318.393 271.284, 315.609 274.288 C 312.812 277.306, 308.801 278.241, 300.500 277.811 C 294.956 277.524, 294.475 277.310, 294.165 275 C 293.652 271.164, 292 270.103, 292 273.609 C 292 279.399, 293.653 280.324, 303.085 279.810 C 313.835 279.225, 317.543 277.411, 318.992 272.030 C 319.829 268.923, 319.740 267.313, 318.580 264.537 C 317.767 262.591, 316.604 261, 315.994 261 C 315.319 261, 315.494 261.867, 316.443 263.223 M 507.719 265.690 C 505.673 268.212, 504 270.664, 504 271.138 C 504 273.201, 500.209 271.761, 499.029 269.250 C 498.255 267.600, 497.553 267.013, 497.275 267.782 C 496.516 269.883, 499.844 274, 502.301 274 C 505.154 274, 509.613 270.997, 508.125 270.077 C 507.428 269.647, 507.980 268.098, 509.686 265.701 C 513.517 260.317, 512.082 260.309, 507.719 265.690 M 409.200 263.200 C 408.540 263.860, 408 265.210, 408 266.200 C 408 268.405, 411.437 272, 413.545 272 C 414.784 272, 414.957 271.257, 414.415 268.250 C 413.390 262.561, 411.586 260.814, 409.200 263.200 M 300.750 264.392 C 298.722 265.932, 298.427 270.286, 300.250 271.780 C 303.276 274.261, 311.010 273.145, 310.985 270.231 C 310.973 268.909, 310.771 268.814, 310.129 269.826 C 309.666 270.555, 307.392 271.406, 305.075 271.717 L 300.862 272.282 301.181 268.391 C 301.492 264.595, 301.586 264.508, 305 264.843 C 306.925 265.031, 309.063 265.649, 309.750 266.215 C 310.615 266.928, 311 266.910, 311 266.158 C 311 263.300, 303.818 262.063, 300.750 264.392 M 160.750 271.706 C 161.988 271.944, 164.012 271.944, 165.250 271.706 C 166.488 271.467, 165.475 271.272, 163 271.272 C 160.525 271.272, 159.512 271.467, 160.750 271.706 M 357.728 367.289 C 348.230 370.339, 342.930 378.128, 342.215 390.085 C 341.570 400.885, 343.667 407.516, 349.397 412.798 C 359.551 422.158, 374.258 420.219, 381.465 408.570 C 384.176 404.187, 384.537 402.663, 384.848 394.277 C 385.222 384.224, 384.409 380.849, 380.259 375.211 C 375.004 368.071, 365.594 364.762, 357.728 367.289 M 24.687 367.647 C 24.309 368.024, 24 369.818, 24 371.631 C 24 375.816, 26.166 377.047, 33.184 376.853 L 38.500 376.706 32.704 376.087 C 25.962 375.368, 23.816 373.426, 25.977 370 C 26.744 368.784, 30.142 368.440, 43.906 368.185 C 61.624 367.856, 65 368.453, 65 371.913 C 65 374.731, 62.956 375.842, 56.970 376.281 C 52.584 376.602, 52.888 376.663, 58.500 376.591 L 65.500 376.500 65.500 372 L 65.500 367.500 45.437 367.230 C 34.402 367.081, 25.065 367.269, 24.687 367.647 M 80.341 368.199 C 79.109 370.105, 72.010 390.343, 72.427 390.760 C 72.622 390.955, 74.171 387.376, 75.871 382.807 C 79.681 372.561, 81.011 370.003, 83.259 368.599 C 86.214 366.752, 90.138 369.773, 92.243 375.515 C 95.359 384.015, 97.664 390.065, 102.475 402.377 C 105.028 408.909, 106.880 414.871, 106.590 415.627 C 106.032 417.079, 100.315 417.502, 98.376 416.235 C 97.757 415.831, 96.935 414.043, 96.549 412.261 C 96.162 410.480, 95.473 408.792, 95.016 408.510 C 94.009 407.888, 95.982 414.993, 97.304 416.750 C 97.857 417.484, 100.512 418, 103.739 418 C 108.935 418, 109.203 417.878, 108.676 415.750 C 107.969 412.900, 92.248 371.015, 91.129 369 C 90.034 367.030, 81.505 366.396, 80.341 368.199 M 113.450 368.270 C 113.182 368.968, 113.084 380.331, 113.231 393.520 L 113.500 417.500 116.500 417.785 L 119.500 418.071 117 416.753 L 114.500 415.436 114.500 392.800 C 114.500 380.350, 114.794 369.870, 115.153 369.512 C 115.511 369.155, 120.686 368.809, 126.653 368.744 C 139.820 368.601, 144.005 370.130, 147.112 376.219 C 149.311 380.529, 149.009 384.474, 146.136 388.985 C 144.644 391.328, 144.650 391.409, 146.216 390.170 C 148.593 388.290, 150.306 382.447, 149.594 378.650 C 147.952 369.898, 142.110 367.053, 125.719 367.022 C 117.102 367.006, 113.806 367.341, 113.450 368.270 M 156.412 368.368 C 156.100 369.181, 155.992 378.543, 156.173 389.173 C 156.543 411.059, 156.930 412.334, 164.403 416.278 C 170.021 419.244, 181.044 419.358, 185.895 416.500 C 191.958 412.929, 193.197 410.239, 194.179 398.516 C 194.669 392.676, 194.941 383.308, 194.784 377.699 L 194.500 367.500 189.250 367.198 C 185.494 366.981, 183.966 367.266, 183.880 368.198 C 183.813 368.914, 183.701 377.440, 183.630 387.144 C 183.479 407.661, 182.981 409, 175.500 409 C 168.045 409, 167.579 407.749, 167 386.148 L 166.500 367.500 161.740 367.195 C 158.254 366.971, 156.828 367.285, 156.412 368.368 M 203.470 368.217 C 203.191 368.944, 203.084 380.331, 203.231 393.520 L 203.500 417.500 219.809 417.775 L 236.117 418.050 235.809 413.775 L 235.500 409.500 225.500 409 L 215.500 408.500 215 388 L 214.500 367.500 209.239 367.197 C 205.572 366.986, 203.824 367.296, 203.470 368.217 M 240.450 368.270 C 240.182 368.968, 240.084 380.331, 240.231 393.520 L 240.500 417.500 257.175 417.774 C 272.924 418.032, 273.884 417.940, 274.465 416.109 C 274.804 415.043, 274.793 413.022, 274.440 411.618 C 273.810 409.105, 273.635 409.061, 263.150 408.783 L 252.500 408.500 252.200 402.750 L 251.900 397 259.868 397 C 270.288 397, 271 396.673, 271 391.893 L 271 388 261.833 388 C 251.663 388, 250.135 388.700, 259.500 389.068 C 266.584 389.347, 269 390.356, 269 393.035 C 269 394.822, 268.286 395, 261.122 395 C 252.168 395, 251.541 395.421, 250.702 402 C 249.799 409.086, 251.094 410.069, 261.952 410.537 C 272.078 410.974, 273 411.266, 273 414.040 C 273 416.773, 269.963 417.261, 255.483 416.853 C 245.678 416.577, 242.723 416.171, 242 415 C 240.907 413.232, 241.233 372.050, 242.354 370.236 C 242.903 369.348, 247.148 369, 257.442 369 C 270.245 369, 271.815 369.186, 272.221 370.750 C 273.200 374.525, 272.121 375, 262.572 375 C 254.869 375, 253.031 375.308, 251.655 376.829 C 249.877 378.793, 249.614 382.276, 251 385.500 C 251.631 386.969, 251.878 386.106, 251.930 382.250 L 252 377 262.521 377 C 272.689 377, 273.080 376.918, 274.148 374.574 C 274.756 373.239, 274.963 370.989, 274.608 369.574 L 273.962 367 257.450 367 C 245.025 367, 240.817 367.314, 240.450 368.270 M 280.450 368.270 C 280.182 368.968, 280.084 380.331, 280.231 393.520 L 280.500 417.500 286 417.500 L 291.500 417.500 291.782 394.500 C 291.937 381.850, 291.816 370.488, 291.513 369.250 C 291.033 367.289, 290.318 367, 285.950 367 C 282.821 367, 280.754 367.477, 280.450 368.270 M 300.450 368.270 C 300.182 368.968, 300.084 380.331, 300.231 393.520 L 300.500 417.500 305.750 417.802 L 311 418.105 310.807 409.802 C 310.623 401.859, 310.599 401.779, 310.254 407.962 C 310.056 411.516, 309.412 415.003, 308.824 415.712 C 307.479 417.332, 303.781 417.381, 302.200 415.800 C 300.705 414.305, 300.508 375.425, 301.975 371.565 C 302.941 369.025, 303.057 369, 314.025 369 C 321.588 369, 325.956 369.445, 327.800 370.405 C 337.004 375.194, 338.313 384.169, 331.387 395 C 330.507 396.375, 331.402 395.747, 333.376 393.604 C 339.265 387.211, 339.459 378.870, 333.868 372.503 C 332.183 370.583, 329.206 368.596, 327.168 368.030 C 321.663 366.501, 301.058 366.686, 300.450 368.270 M 465.626 371.201 C 462.106 380.795, 455.585 397.946, 452.774 405 C 451.131 409.125, 449.555 413.762, 449.272 415.304 L 448.757 418.107 454.550 417.804 C 458.301 417.607, 460.499 417.025, 460.787 416.153 C 461.144 415.071, 460.806 415.034, 459.066 415.965 C 456.090 417.557, 451.592 416.894, 451.196 414.805 C 450.897 413.229, 456.320 398.355, 464.676 377.833 C 468.258 369.034, 470.337 367.041, 474.333 368.574 C 475.637 369.075, 483.004 384.464, 482.998 386.673 C 482.996 387.128, 484.311 390.650, 485.919 394.500 C 487.527 398.350, 489.389 402.977, 490.056 404.782 C 490.723 406.587, 491.448 407.885, 491.667 407.666 C 491.886 407.448, 490.973 404.396, 489.640 400.884 C 488.306 397.373, 484.952 388.425, 482.186 381 L 477.158 367.500 472.180 367.201 L 467.203 366.903 465.626 371.201 M 499.713 367.621 C 499.321 368.013, 499 379.508, 499 393.167 L 499 418 505.250 417.837 L 511.500 417.674 506 417.087 L 500.500 416.500 500.217 395 C 500.062 383.175, 500.175 372.517, 500.470 371.317 C 501.125 368.642, 504.227 367.516, 506.940 368.968 C 508.833 369.981, 508.975 371.187, 509.262 388.773 L 509.569 407.500 509.534 387.500 L 509.500 367.500 504.963 367.204 C 502.467 367.041, 500.105 367.229, 499.713 367.621 M 158.615 369.292 C 156.998 370.474, 156.866 372.281, 157.168 389.047 C 157.482 406.502, 157.626 407.677, 159.833 410.771 C 162.929 415.112, 167.806 417, 175.922 417 C 181.509 417, 183.291 416.552, 186.833 414.255 C 192.601 410.515, 193.165 407.939, 192.803 387 L 192.500 369.500 189.284 369.189 C 185.164 368.791, 185.102 369.072, 184.765 389.839 L 184.500 406.178 181.694 408.589 C 178.301 411.505, 174.584 411.653, 170.304 409.044 C 166.380 406.651, 166.125 405.324, 165.743 385.310 C 165.584 376.956, 165.240 369.925, 164.977 369.685 C 163.536 368.367, 160.165 368.159, 158.615 369.292 M 359.135 368.721 C 346.478 371.121, 339.535 389.800, 345.634 405.043 C 347.474 409.643, 352.826 414.675, 357.711 416.398 C 366.279 419.421, 377.458 414.510, 381.329 406.021 C 384.083 399.981, 384.260 387.470, 381.685 380.797 C 378.112 371.536, 369.267 366.800, 359.135 368.721 M 204.858 372.750 C 204.536 381.244, 205.119 415.384, 205.599 416.161 C 205.885 416.622, 212.151 417, 219.524 417 C 231.420 417, 233.038 416.797, 233.895 415.196 C 235.693 411.837, 233.654 410.735, 224.917 410.344 C 212.683 409.797, 213 410.353, 213 389.427 C 213 379.932, 212.727 371.452, 212.393 370.582 C 212.005 369.569, 210.565 369, 208.393 369 C 205.164 369, 204.993 369.181, 204.858 372.750 M 282.872 370.654 C 281.813 371.930, 281.471 377.175, 281.374 393.634 C 281.233 417.416, 281.395 418.041, 287.270 416.346 L 290.500 415.415 290.574 395.958 C 290.661 373.327, 290.020 369, 286.584 369 C 285.297 369, 283.627 369.744, 282.872 370.654 M 125.441 376.095 C 125.134 376.593, 127.126 377, 129.870 377 C 133.070 377, 135.420 377.563, 136.429 378.571 C 138.066 380.209, 138.547 384.892, 137.250 386.571 C 136.838 387.105, 137.259 386.731, 138.187 385.739 C 139.552 384.279, 139.675 383.366, 138.831 380.946 C 138.258 379.303, 137.049 377.578, 136.145 377.115 C 133.586 375.803, 126.064 375.087, 125.441 376.095 M 312.500 376 C 312.116 376.621, 313.990 377, 317.441 377 C 323.931 377, 327 379.224, 327 383.927 C 327 388.179, 323 391, 316.972 391 C 311.476 391, 311 390.343, 311 382.752 C 311 379.955, 310.715 377.952, 310.367 378.300 C 308.942 379.725, 309.755 389.072, 311.468 390.965 C 313.990 393.752, 322.608 392.774, 325.750 389.344 C 328.667 386.160, 328.754 380.780, 325.931 378.150 C 322.865 375.294, 313.830 373.848, 312.500 376 M 356.555 378.250 C 353.833 380.977, 353.194 382.524, 352.593 387.855 C 352.199 391.350, 352.092 394.426, 352.356 394.689 C 352.619 394.953, 353.144 392.698, 353.521 389.679 C 355.090 377.119, 363.780 372.196, 370.430 380.099 C 375.361 385.959, 374.654 402.767, 369.298 406.980 C 366.119 409.481, 360.944 409.585, 358.009 407.208 C 356.792 406.223, 355.159 403.186, 354.380 400.458 L 352.962 395.500 353.482 400.399 C 354.066 405.895, 355.047 407.456, 359.299 409.654 C 362.785 411.458, 368.009 410.778, 370.242 408.230 C 375.540 402.186, 376.804 389.332, 372.874 381.463 C 369.229 374.163, 362.048 372.749, 356.555 378.250 M 49.772 397.250 L 49.500 416.500 46.185 416.818 C 44.361 416.993, 42.151 416.543, 41.272 415.818 C 39.927 414.708, 39.752 414.737, 40.166 416 C 40.500 417.019, 42.316 417.597, 45.829 417.802 L 51 418.105 51 398.052 C 51 387.024, 50.785 378, 50.522 378 C 50.258 378, 49.921 386.663, 49.772 397.250 M 123.286 382.500 C 123.294 385.250, 123.488 386.256, 123.718 384.736 C 123.947 383.216, 123.941 380.966, 123.704 379.736 C 123.467 378.506, 123.279 379.750, 123.286 382.500 M 83.571 386.571 C 83.204 388.037, 83.096 389.429, 83.331 389.665 C 83.567 389.900, 84.061 388.894, 84.429 387.429 C 84.796 385.963, 84.904 384.571, 84.669 384.335 C 84.433 384.100, 83.939 385.106, 83.571 386.571 M 469.718 386.683 C 469.452 387.133, 468.959 389.075, 468.620 391 L 468.006 394.500 469.507 390.587 C 470.843 387.103, 470.982 384.545, 469.718 386.683 M 473.157 386.500 C 473.154 387.050, 473.759 389.075, 474.500 391 C 475.241 392.925, 475.862 393.825, 475.879 393 C 475.896 392.175, 475.292 390.150, 474.536 388.500 C 473.781 386.850, 473.160 385.950, 473.157 386.500 M 125.585 388.985 C 126.203 389.603, 128.228 389.644, 131.035 389.094 L 135.500 388.219 130.050 388.110 C 126.473 388.038, 124.938 388.338, 125.585 388.985 M 70.584 393.551 C 67.224 401.917, 63 414.449, 63 416.050 C 63 417.744, 63.713 418, 68.433 418 C 73.208 418, 73.943 417.728, 74.512 415.750 C 76.016 410.516, 75.947 409.710, 74.274 413 C 72.849 415.802, 71.822 416.564, 69.120 416.823 C 63.791 417.333, 63.437 416.048, 66.506 407.326 C 68.021 403.022, 69.904 398.232, 70.691 396.682 C 71.478 395.132, 71.952 393.355, 71.744 392.733 C 71.537 392.110, 71.015 392.478, 70.584 393.551 M 408.234 393.166 C 406.579 394.821, 406.669 398.481, 408.401 399.918 C 409.298 400.662, 412.987 400.976, 418.651 400.790 L 427.500 400.500 427.500 396.500 L 427.500 392.500 418.484 392.216 C 412.327 392.021, 409.077 392.323, 408.234 393.166 M 145 393.677 C 145 394.059, 145.937 395.368, 147.082 396.587 C 150.340 400.056, 150.647 405.799, 147.799 410 C 144.407 415.001, 140.869 416.366, 129.500 417.057 L 119.500 417.665 129.290 417.832 C 140.122 418.018, 145.466 416.270, 148.575 411.525 C 150.756 408.197, 151.509 401.642, 150.100 398.241 C 149.038 395.677, 145 392.063, 145 393.677 M 412 393.999 C 410.388 394.380, 409.500 395.284, 409.500 396.545 C 409.500 398.304, 410.329 398.529, 417.750 398.790 C 425.938 399.079, 426 399.062, 426 396.608 C 426 395.125, 425.300 393.919, 424.250 393.596 C 422.162 392.952, 415.496 393.172, 412 393.999 M 313 399 C 311.884 399.721, 312.457 399.973, 315.240 399.985 C 318.944 400, 319.023 400.086, 323.500 409 L 328.020 418 332.951 418 C 335.663 418, 338.110 417.631, 338.389 417.179 C 338.668 416.727, 337.406 413.465, 335.585 409.929 C 333.763 406.393, 331.977 402.262, 331.617 400.750 C 331.257 399.238, 330.472 398, 329.874 398 C 328.663 398, 328.562 397.690, 333.073 407.785 C 336.712 415.928, 336.265 418.195, 331.364 416.445 C 329.484 415.774, 327.528 413.273, 324.609 407.809 C 319.967 399.120, 316.677 396.624, 313 399 M 470.250 398.689 C 471.212 398.941, 472.788 398.941, 473.750 398.689 C 474.712 398.438, 473.925 398.232, 472 398.232 C 470.075 398.232, 469.288 398.438, 470.250 398.689 M 123.272 403 C 123.272 405.475, 123.467 406.488, 123.706 405.250 C 123.944 404.012, 123.944 401.988, 123.706 400.750 C 123.467 399.512, 123.272 400.525, 123.272 403 M 139.079 404.193 C 139.036 405.125, 138 406.587, 136.777 407.443 C 134.994 408.692, 134.888 409, 136.242 409 C 138.147 409, 140.383 405.512, 139.644 403.695 C 139.372 403.025, 139.123 403.245, 139.079 404.193 M 82.250 407.728 C 84.313 407.944, 87.688 407.944, 89.750 407.728 C 91.813 407.513, 90.125 407.336, 86 407.336 C 81.875 407.336, 80.188 407.513, 82.250 407.728 M 468.250 407.728 C 470.313 407.944, 473.688 407.944, 475.750 407.728 C 477.813 407.513, 476.125 407.336, 472 407.336 C 467.875 407.336, 466.188 407.513, 468.250 407.728 M 127.762 409.707 C 129.006 409.946, 130.806 409.937, 131.762 409.687 C 132.718 409.437, 131.700 409.241, 129.500 409.252 C 127.300 409.263, 126.518 409.468, 127.762 409.707 M 481.097 409.628 C 481.044 410.248, 481.681 412.386, 482.513 414.378 C 483.633 417.057, 484.609 417.982, 486.263 417.932 L 488.500 417.865 486.343 416.821 C 485.157 416.247, 483.513 414.140, 482.691 412.139 C 481.868 410.137, 481.151 409.008, 481.097 409.628 M 492.689 412.654 C 493.149 416.138, 492.936 416.885, 491.369 417.288 C 490.074 417.620, 490.345 417.804, 492.250 417.884 C 494.479 417.978, 494.993 417.574, 494.965 415.750 C 494.945 414.512, 494.302 412.375, 493.535 411 C 492.201 408.609, 492.164 408.681, 492.689 412.654 M 519.789 409.907 C 529.239 410.510, 531.345 411.490, 530.738 415 C 530.538 416.160, 528.330 416.631, 520.990 417.078 L 511.500 417.656 521.500 417.578 L 531.500 417.500 531.500 413.500 L 531.500 409.500 521 409.407 L 510.500 409.313 519.789 409.907" stroke="#FFFFFF" fill="#FFFFFF" fill-rule="evenodd"/><path d="M 304.542 18.729 C 302.344 19.288, 303.175 18.800, 285.500 29.916 C 271.572 38.675, 266.653 42.193, 259.515 48.500 C 244.797 61.504, 239.834 66.265, 234 72.979 C 220.794 88.176, 217.370 90.211, 213.775 85 C 209.563 78.895, 197.528 68.163, 190.726 64.448 C 183.551 60.528, 183.422 60.500, 172.500 60.500 C 162.537 60.500, 161.123 60.734, 157.500 62.977 C 148.735 68.404, 144.261 74.022, 140.883 83.841 C 139.172 88.813, 139.081 90.467, 140.015 99.643 C 141.122 110.527, 142.557 115.057, 146.938 121.500 C 148.434 123.700, 150.890 127.300, 152.395 129.500 C 153.901 131.700, 157.128 135.645, 159.566 138.267 C 165.200 144.324, 165.232 146.559, 159.750 151.085 C 155.871 154.287, 145.572 161, 144.539 161 C 144.301 161, 141.449 162.558, 138.199 164.463 C 126.439 171.355, 111.828 174.915, 94.500 175.110 C 68.006 175.408, 48.793 166.598, 41.049 150.601 C 39.037 146.445, 38.821 144.765, 39.196 136.198 C 39.738 123.812, 42.531 117.606, 52.092 107.539 C 63.668 95.354, 75.803 90.566, 95 90.612 C 105.449 90.637, 107.075 90.899, 112.787 93.473 C 121.700 97.490, 126.323 103.819, 127.414 113.500 C 128.363 121.923, 124.139 133.829, 118.342 139.068 C 111.489 145.260, 101.251 148.879, 88.250 149.706 C 79.416 150.267, 77.130 151.068, 80.582 152.393 C 83.361 153.460, 94.332 153.021, 99.500 151.637 C 112.801 148.075, 123.158 140.104, 128.468 129.340 C 132.679 120.806, 133.225 109.357, 129.782 101.835 C 123.420 87.938, 110.429 81, 90.770 81 C 83.066 81, 78.356 81.588, 71.993 83.344 C 60.631 86.479, 56.612 88.713, 49.500 95.846 C 41.891 103.477, 39.954 106.091, 36.417 113.500 C 33.919 118.733, 33.504 120.906, 33.177 130.500 C 32.834 140.549, 33.021 141.994, 35.331 147.217 C 38.097 153.468, 48.466 167, 50.490 167 C 51.186 167, 52.373 167.748, 53.128 168.662 C 56.676 172.958, 75.301 178.500, 87.520 178.896 C 108.691 179.581, 142.627 169.333, 154 158.820 C 159.564 153.677, 166.943 149.033, 169.837 148.853 C 171.335 148.761, 176.873 150.916, 182.500 153.783 C 188 156.585, 195.845 159.800, 199.933 160.926 C 209.566 163.580, 210.536 165.079, 207.432 172.509 C 205.346 177.500, 206.375 178.283, 213.899 177.432 C 220.505 176.684, 225 174.106, 225 171.062 C 225 167.906, 228.864 164.114, 232.793 163.414 C 238.038 162.480, 252 157.038, 252 155.927 C 252 155.417, 252.597 155, 253.326 155 C 254.935 155, 259 150.834, 259 149.186 C 259 147.398, 258.152 147.712, 253.912 151.069 C 248.181 155.609, 241.751 158.765, 236.686 159.524 C 232.693 160.123, 232.124 159.965, 231.529 158.092 C 231.098 156.732, 231.884 153.779, 233.753 149.744 C 235.344 146.310, 238.188 139.900, 240.073 135.500 C 241.958 131.100, 249.045 116.485, 255.822 103.021 C 269.910 75.033, 275.692 65.072, 288.051 47.500 C 291.146 43.100, 294.538 37.928, 295.589 36.007 C 296.640 34.086, 299.637 29.631, 302.250 26.108 C 306.176 20.813, 308.029 17.523, 306.750 18.116 C 306.613 18.180, 305.619 18.456, 304.542 18.729 M 279.436 36.633 C 275.621 39.181, 272.350 41.656, 272.167 42.133 C 271.983 42.610, 271.359 43, 270.780 43 C 269.068 43, 255.641 55.292, 238.280 72.752 C 219.792 91.347, 218.962 92.783, 221.047 102.578 C 222.431 109.077, 222.521 110.025, 222.805 121.059 C 222.933 126.035, 223.518 129.281, 224.514 130.559 C 225.347 131.626, 225.922 132.050, 225.792 131.500 C 225.662 130.950, 226.265 129.375, 227.132 128 C 230.815 122.160, 234.725 115.228, 236.441 111.500 C 237.454 109.300, 239.724 105.250, 241.486 102.500 C 243.248 99.750, 245.997 95.394, 247.595 92.820 C 249.193 90.246, 253.762 83.385, 257.750 77.573 C 261.738 71.761, 265 66.743, 265 66.421 C 265 66.100, 266.688 63.739, 268.750 61.175 C 275.777 52.440, 287.329 38.529, 288.666 37.191 C 290.640 35.217, 290.342 32, 288.186 32 C 287.188 32, 283.251 34.085, 279.436 36.633 M 325 64.615 C 311.600 66.949, 301.803 71.760, 290.718 81.451 C 280.830 90.096, 275.512 97.959, 268.366 114.500 C 264.329 123.844, 263.570 126.629, 263.323 133 C 263.045 140.153, 263.098 140.361, 264.471 137.500 C 265.262 135.850, 265.930 133.310, 265.955 131.855 C 266.129 121.648, 281.165 92.200, 289.007 86.707 C 290.135 85.918, 293.079 83.377, 295.550 81.061 C 301.532 75.454, 314.481 69.514, 324.254 67.894 C 331.431 66.704, 332.709 66.777, 341.393 68.871 C 352.968 71.661, 353.306 73.322, 343.163 77.555 C 335.807 80.624, 323.430 87.131, 318 90.783 C 316.075 92.077, 311.005 96.818, 306.734 101.318 C 299.598 108.836, 294.177 117.638, 289.991 128.500 C 288.644 131.998, 287 141.019, 287 144.920 C 287 154.282, 294.185 167.711, 301.757 172.500 C 306.348 175.404, 306.869 175.497, 318 175.407 C 329.166 175.317, 329.712 175.208, 336.797 171.647 C 347.883 166.076, 363.930 149.660, 366.268 141.500 C 366.583 140.400, 368.173 136.324, 369.800 132.442 C 371.428 128.560, 373.020 123.610, 373.339 121.442 C 375.692 105.428, 374.874 97.227, 369.949 87.446 C 367.440 82.466, 367.077 80.929, 367.895 78.775 C 368.754 76.516, 369.671 76.060, 374.588 75.446 C 386.572 73.948, 399.849 76.490, 413.528 82.900 C 424.820 88.192, 425.006 89.518, 415.846 99.389 C 407.111 108.802, 395.130 125.783, 383.985 144.548 C 381.060 149.472, 378.084 154.192, 377.371 155.038 C 376.657 155.884, 372.833 163.084, 368.873 171.038 C 356.008 196.875, 345.052 211.339, 333.169 218.173 C 328.337 220.953, 327.086 221.225, 319.789 221.093 C 315.361 221.012, 307.635 220.012, 302.619 218.870 C 297.604 217.727, 290.429 216.773, 286.675 216.749 C 280.978 216.713, 279.492 217.063, 277.689 218.867 C 275.114 221.441, 276.024 223.664, 280.592 225.964 C 283.723 227.540, 284.768 227.565, 331.500 227.208 C 371.967 226.898, 385.350 223.870, 404.748 210.635 C 417.668 201.820, 431.821 186.203, 435.513 176.688 C 436.620 173.835, 438.017 170.600, 438.616 169.500 C 439.798 167.330, 442.237 159.938, 443.934 153.384 C 444.520 151.120, 445 143.405, 445 136.239 C 445 121.276, 443.485 114.732, 436.942 101.436 C 432.221 91.840, 432.568 89.326, 439.291 84.443 C 441.606 82.761, 445.196 80.144, 447.269 78.627 C 449.342 77.111, 450.804 75.491, 450.518 75.029 C 449.362 73.159, 441.748 76.782, 434.397 82.698 C 429.201 86.880, 425.314 86.995, 419.680 83.137 C 406.817 74.327, 396.275 71.598, 374.500 71.444 C 357.985 71.327, 357.285 71.237, 349.959 68.267 C 342.552 65.264, 330.986 63.572, 325 64.615 M 168 68.057 C 160.143 71.336, 152.850 79.784, 149.592 89.381 C 147.617 95.197, 147.539 106.184, 149.422 113.201 C 151.376 120.482, 157.755 132.975, 160.902 135.683 C 162.331 136.913, 164.528 138.791, 165.785 139.857 C 167.130 140.998, 168.899 141.578, 170.087 141.267 C 172.057 140.752, 192 121.263, 192 119.854 C 192 119.463, 192.591 118.548, 193.314 117.821 C 194.036 117.095, 197.343 113.350, 200.662 109.500 C 203.980 105.650, 208.060 101.048, 209.727 99.274 C 213.853 94.882, 214.442 91.308, 211.689 87.368 C 206.532 79.988, 199.263 73.248, 192 69.111 C 188.907 67.349, 171.525 66.586, 168 68.057 M 352 80.840 C 342.297 84.975, 334.401 90.380, 325.649 98.877 C 317.761 106.536, 307.809 120.051, 304.571 127.500 C 303.615 129.700, 302.139 133.075, 301.292 135 C 300.350 137.138, 299.551 142.845, 299.239 149.663 C 298.770 159.924, 298.907 161.113, 300.935 164.395 C 305.067 171.081, 308.249 172.504, 319 172.472 C 327.091 172.448, 329.330 172.059, 334.093 169.846 C 337.170 168.418, 340.545 166.529, 341.593 165.649 C 342.642 164.769, 345.170 162.800, 347.210 161.274 C 351.889 157.776, 360.333 147.250, 363.543 140.915 C 372.936 122.378, 374.234 102.802, 367.117 87 C 362.993 77.841, 360.970 77.017, 352 80.840 M 425.909 99.285 C 424.752 100.503, 421.711 104.745, 419.152 108.712 C 416.594 112.679, 413.523 117.404, 412.329 119.212 C 411.136 121.020, 406.739 129.250, 402.560 137.500 C 389.281 163.712, 375.615 186.354, 371.662 188.693 C 370.912 189.137, 368.662 191.797, 366.660 194.604 C 364.659 197.412, 359.630 202.756, 355.484 206.481 C 346.636 214.432, 344.743 215.868, 339.817 218.371 C 336.593 220.010, 336.281 220.476, 337.308 222.121 C 338.338 223.771, 339.797 224, 349.299 224 C 377.709 224, 397.670 216.246, 415.962 198.103 C 426.179 187.969, 434.911 174.979, 437.065 166.708 C 437.525 164.944, 438.805 160.426, 439.910 156.668 C 444.583 140.778, 444.435 131.987, 439.213 115 C 434.404 99.359, 430.367 94.591, 425.909 99.285 M 213.294 101.407 C 212.060 102.538, 205.191 109.541, 196.500 118.528 C 193.750 121.371, 188.800 126.766, 185.500 130.516 C 182.200 134.265, 178.240 138.518, 176.699 139.967 C 172.403 144.007, 174.093 147.127, 182.720 151.085 C 194.553 156.514, 195.363 156.816, 202.464 158.459 C 212.128 160.695, 213.645 159.533, 216.878 147.414 C 220.719 133.015, 220.255 101.823, 216.184 100.758 C 215.250 100.514, 213.949 100.806, 213.294 101.407 M 432.508 217.988 C 432.172 218.531, 433.720 219.705, 435.949 220.596 C 440.103 222.258, 440.415 222.890, 440.093 229 C 439.839 233.845, 434.508 244.094, 430.636 247.184 C 427.445 249.730, 421.876 251.614, 419 251.120 C 418.175 250.978, 416.938 250.132, 416.250 249.240 C 415.563 248.348, 415 248.099, 415 248.686 C 415 250.144, 416.918 251.544, 420.495 252.697 C 424.503 253.990, 430.294 252.448, 433.927 249.120 C 435.500 247.679, 437.638 245.994, 438.678 245.376 C 440.402 244.351, 440.535 244.547, 440.179 247.591 C 439.965 249.427, 439.162 251.451, 438.395 252.087 C 437.628 252.724, 437 253.797, 437 254.472 C 437 255.148, 435.650 257.564, 434 259.841 C 432.350 262.119, 431 264.399, 431 264.908 C 431 265.417, 430.438 266.034, 429.750 266.280 C 429.063 266.525, 428.758 267.008, 429.072 267.352 C 429.387 267.697, 432.012 265.958, 434.904 263.489 C 437.797 261.020, 440.791 259, 441.559 259 C 443.480 259, 446.360 254.347, 446.630 250.806 C 446.986 246.133, 448.607 245, 454.931 245 C 462.232 245, 464.063 246.380, 464.741 252.391 C 465.496 259.093, 462.233 264.858, 454.500 270.482 C 452.521 271.921, 452.523 271.937, 454.691 271.968 C 455.896 271.986, 457.160 271.550, 457.500 271 C 457.840 270.450, 458.879 269.984, 459.809 269.964 C 461.887 269.920, 466.467 266.128, 467.314 263.750 C 467.657 262.788, 468.594 262, 469.396 262 C 471.480 262, 470.399 251.352, 467.962 247.873 C 466.221 245.388, 466.250 241, 468.007 241 C 468.432 241, 469.741 238.955, 470.916 236.455 C 472.708 232.643, 472.886 231.312, 472.020 228.205 C 470.327 222.130, 467.917 219.802, 463.078 219.567 C 459.148 219.376, 458.868 219.530, 459.275 221.659 C 459.582 223.266, 459.020 224.412, 457.405 225.470 C 456.135 226.302, 453.387 228.831, 451.298 231.089 C 447.670 235.012, 442.976 238.467, 444.396 236.169 C 444.746 235.602, 444.688 234.923, 444.266 234.661 C 443.845 234.398, 443.500 230.806, 443.500 226.677 L 443.500 219.171 439.884 218.085 C 435.397 216.739, 433.297 216.711, 432.508 217.988 M 458.070 228.552 C 452.795 236.367, 451.813 238.782, 453.005 241.009 C 454.125 243.103, 457.448 243.702, 458.500 242 C 458.840 241.450, 459.907 241, 460.871 241 C 464.885 241, 468.944 231.614, 467.066 226.674 C 465.411 222.322, 461.760 223.084, 458.070 228.552 M 520.341 241 C 519.366 242.650, 518.216 244, 517.784 244 C 517.353 244, 517 244.563, 517 245.250 C 517 246.801, 510.613 252, 508.708 252 C 507.939 252, 506.495 252.900, 505.500 254 C 504.505 255.100, 503.197 256.008, 502.595 256.018 C 501.993 256.028, 500.005 257.837, 498.177 260.037 L 494.855 264.039 497.427 267.096 C 498.842 268.778, 500 270.569, 500 271.077 C 500 272.568, 503.735 272.134, 504.334 270.573 C 504.635 269.788, 504.263 268.634, 503.508 268.007 C 501.533 266.367, 504.165 259.356, 508.107 255.755 C 510.735 253.355, 511.323 253.180, 512.567 254.424 C 513.355 255.212, 514 256.270, 514 256.775 C 514 258.169, 510.909 264.188, 508.757 266.984 L 506.845 269.467 510.672 271.105 C 514.177 272.604, 514.732 272.609, 517.250 271.156 C 520.264 269.416, 520.721 268.214, 518.667 267.426 C 516.973 266.776, 516.892 263.949, 518.512 262 C 520.174 260.001, 523 254.364, 523 253.050 C 523 252.472, 522.116 252, 521.035 252 C 519.955 252, 518.585 251.093, 517.992 249.985 C 517.117 248.350, 517.252 247.851, 518.707 247.336 C 521.861 246.221, 525 242.724, 525 240.326 C 525 237.038, 522.464 237.405, 520.341 241 M 188.673 246.109 C 178.842 251.292, 178.222 270.659, 187.708 276.255 C 193.453 279.645, 201.311 278.469, 205.228 273.633 C 209.423 268.454, 205.675 265.381, 200.822 270.020 C 197.318 273.368, 192.117 274.051, 189.956 271.447 C 187.963 269.046, 187.045 261.015, 188.214 256.209 C 189.961 249.030, 196.975 246.980, 200.642 252.576 C 202.543 255.478, 207.018 255.955, 206.967 253.250 C 206.927 251.163, 204.185 247.691, 201.459 246.278 C 197.254 244.099, 192.603 244.037, 188.673 246.109 M 238.479 244.931 C 231.104 246.695, 227 252.630, 227 261.531 C 227 274.118, 237.829 282.189, 247.854 277.075 C 253.546 274.171, 255.622 267.123, 250.818 267.015 C 250.443 267.007, 249.175 268.350, 248 270 C 246.138 272.614, 245.252 273, 241.101 273 C 235.538 273, 234.520 271.691, 233.546 263.288 C 232.925 257.934, 234.731 251.426, 237.289 249.800 C 239.975 248.093, 244.186 249.032, 247.154 252 C 250.594 255.440, 254 255.989, 254 253.104 C 254 251.008, 247.733 245, 245.547 245 C 244.786 245, 243.564 244.822, 242.832 244.604 C 242.099 244.387, 240.141 244.534, 238.479 244.931 M 73.482 247.250 C 73.175 248.488, 73.054 255.800, 73.212 263.500 C 73.497 277.365, 73.523 277.503, 75.865 277.835 C 78.792 278.249, 79.936 277.168, 80.547 273.413 C 81.721 266.198, 81.854 266, 85.551 266 C 92.798 266, 99.005 261.284, 98.996 255.785 C 98.991 252.465, 95.405 247.105, 92.434 245.975 C 91.024 245.439, 86.308 245, 81.954 245 C 74.576 245, 74 245.153, 73.482 247.250 M 105.476 246.040 C 104.356 247.851, 104 274.131, 105.068 276.126 C 105.619 277.157, 107.137 278, 108.441 278 C 110.536 278, 110.895 277.403, 111.518 272.870 C 111.906 270.048, 111.904 262.623, 111.513 256.370 C 110.822 245.315, 110.738 245, 108.460 245 C 107.172 245, 105.829 245.468, 105.476 246.040 M 119.441 246.294 C 119.168 247.006, 119.069 254.318, 119.222 262.544 L 119.500 277.500 122 277.500 C 124.264 277.500, 124.528 277.063, 124.800 272.859 C 124.981 270.075, 125.780 267.607, 126.800 266.690 C 128.329 265.315, 128.704 265.329, 130.519 266.830 C 131.629 267.749, 133.859 270.603, 135.475 273.173 C 138.240 277.571, 142.298 279.945, 143.560 277.903 C 143.841 277.448, 142.931 274.823, 141.536 272.071 C 138.463 266.007, 138.361 263.639, 141.053 260.947 C 142.653 259.347, 143.039 257.867, 142.803 254.231 C 142.541 250.196, 142.041 249.258, 139.102 247.283 C 136.279 245.386, 134.371 245, 127.821 245 C 122.294 245, 119.789 245.387, 119.441 246.294 M 159.255 246.199 C 158.664 246.915, 157.179 250.650, 155.956 254.500 C 154.732 258.350, 153.402 261.950, 153 262.500 C 152.303 263.454, 148 276.329, 148 277.459 C 148 277.757, 148.981 278, 150.179 278 C 151.392 278, 153.779 276.448, 155.564 274.500 C 158.222 271.598, 159.465 271, 162.842 271 C 166.298 271, 167.338 271.530, 169.707 274.500 C 171.411 276.635, 173.377 278, 174.750 278 C 177.997 278, 177.797 275.385, 173.866 266.500 C 173.380 265.400, 171.253 260.225, 169.140 255 C 165.857 246.883, 164.936 245.456, 162.813 245.199 C 161.447 245.034, 159.846 245.484, 159.255 246.199 M 214.884 252.250 C 214.820 256.238, 214.624 262.875, 214.448 267 C 214.273 271.125, 214.356 275.288, 214.632 276.250 C 215.164 278.101, 218.478 278.653, 219.466 277.056 C 219.787 276.536, 220.280 270.013, 220.563 262.561 C 221.107 248.193, 220.452 245, 216.965 245 C 215.203 245, 214.988 245.749, 214.884 252.250 M 268.989 248.250 C 267.899 250.037, 267.006 252.084, 267.004 252.798 C 267.002 253.512, 266.125 255.908, 265.055 258.122 C 263.986 260.335, 262.559 264.609, 261.886 267.619 C 261.212 270.629, 260.288 273.322, 259.831 273.605 C 259.374 273.887, 259 274.991, 259 276.059 C 259 279.206, 262.488 278.360, 265.432 274.500 C 267.822 271.367, 268.594 271.002, 272.801 271.022 C 277.675 271.045, 281.172 272.965, 282.324 276.250 C 283.043 278.303, 288 278.686, 288 276.690 C 288 275.969, 286.829 272.481, 285.399 268.940 C 283.968 265.398, 282.004 260.475, 281.034 258 C 276.098 245.404, 275.860 245, 273.377 245 C 271.735 245, 270.341 246.033, 268.989 248.250 M 294.113 248.750 C 293.005 253.057, 293.186 274.877, 294.345 276.750 C 295.314 278.317, 307.442 278.439, 311.785 276.925 C 317.219 275.031, 319.843 267.903, 316.693 263.595 C 315.700 262.236, 315.622 260.654, 316.371 257 C 317.191 252.994, 317.067 251.751, 315.626 249.551 C 313.318 246.030, 310.229 245, 301.973 245 L 295.077 245 294.113 248.750 M 334.521 245.966 C 334.193 246.497, 332.337 251.109, 330.397 256.216 C 322.328 277.451, 322.217 278, 325.960 278 C 327.006 278, 328.696 276.486, 329.867 274.500 C 331.736 271.333, 332.357 271, 336.384 271 C 342.266 271, 343.784 271.682, 345.563 275.121 C 347.124 278.140, 350.403 278.997, 351.314 276.624 C 351.604 275.868, 351.270 274.147, 350.571 272.799 C 349.872 271.452, 349.053 269.258, 348.752 267.925 C 348.052 264.829, 341 247.902, 339.722 246.250 C 338.577 244.769, 335.369 244.594, 334.521 245.966 M 81.615 251.465 C 79.520 254.662, 79.578 256.170, 81.892 258.654 C 84.199 261.130, 89.054 260.744, 90.801 257.947 C 92.437 255.328, 90.710 251.220, 87.453 249.982 C 83.816 248.599, 83.428 248.698, 81.615 251.465 M 126.605 250.537 C 124.961 252.182, 124.527 255.604, 125.607 258.418 C 126.492 260.724, 133.222 260.517, 135.394 258.118 C 137.597 255.683, 136.599 251.300, 133.651 250.456 C 132.468 250.118, 130.760 249.637, 129.855 249.387 C 128.951 249.137, 127.488 249.655, 126.605 250.537 M 301.219 250.559 C 296.922 253.569, 299.478 259, 305.191 259 C 307.883 259, 308.967 258.431, 310.019 256.465 C 311.222 254.217, 311.156 253.721, 309.438 252.070 C 306.575 249.321, 303.733 248.798, 301.219 250.559 M 534.089 252.409 L 530.781 255.821 532.551 258.817 C 534.087 261.417, 534.148 262.227, 533.018 264.957 C 532.064 267.260, 531.162 268.021, 529.649 267.801 C 527.208 267.446, 525.803 263.195, 527.409 261.027 C 528.009 260.216, 527.181 260.570, 525.568 261.813 C 522.036 264.537, 519.447 268, 520.943 268 C 521.524 268, 522 268.702, 522 269.559 C 522 270.416, 522.399 270.871, 522.887 270.570 C 523.374 270.269, 524.329 270.692, 525.009 271.511 C 526.568 273.389, 528.891 273.400, 532.610 271.545 C 539.466 268.125, 541.740 263.580, 538.428 259.920 C 537.145 258.502, 537.049 257.482, 537.908 254.372 C 539.367 249.087, 537.993 248.381, 534.089 252.409 M 494.446 252.464 C 492.197 254.165, 488.401 254.458, 487.500 253 C 486.509 251.396, 482.837 251.847, 481.392 253.750 C 479.813 255.830, 479.593 257.369, 481 256.500 C 483.021 255.251, 481.917 259.062, 479.053 263.221 C 477.432 265.574, 475.969 268.384, 475.803 269.464 C 475.282 272.839, 478.626 272.357, 482.083 268.558 C 484.844 265.525, 485.961 265, 489.661 265 C 492.851 265, 494 264.603, 494 263.500 C 494 262.675, 493.550 262, 493 262 C 490.931 262, 492.117 258.867, 495.250 256.053 C 497.539 253.997, 498.188 252.817, 497.446 252.063 C 496.699 251.304, 495.827 251.420, 494.446 252.464 M 160.571 258.571 C 158.729 260.414, 158.629 261.438, 160.035 264.066 C 162.394 268.474, 167.236 264.009, 165.124 259.374 C 163.861 256.600, 162.740 256.403, 160.571 258.571 M 270.543 258.180 C 269.152 262.278, 270.258 266, 272.866 266 C 277.073 266, 277.388 257.785, 273.205 257.180 C 271.987 257.004, 270.789 257.454, 270.543 258.180 M 334.067 259.323 C 332.691 262.944, 333.802 266, 336.494 266 C 339.842 266, 341.548 263.463, 340.402 260.190 C 339.113 256.509, 335.334 255.992, 334.067 259.323 M 409.200 263.200 C 408.540 263.860, 408 265.210, 408 266.200 C 408 268.405, 411.437 272, 413.545 272 C 414.784 272, 414.957 271.257, 414.415 268.250 C 413.390 262.561, 411.586 260.814, 409.200 263.200 M 300.750 264.392 C 298.722 265.932, 298.427 270.286, 300.250 271.780 C 301.980 273.198, 304.993 273.539, 308.250 272.684 C 310.578 272.073, 311 271.433, 311 268.516 C 311 266.133, 310.404 264.751, 309.066 264.035 C 306.442 262.631, 302.868 262.784, 300.750 264.392 M 28 368.729 C 26.469 369.312, 25.043 370.960, 25.015 372.179 C 24.969 374.231, 28.571 376.001, 32.821 376.015 C 40.704 376.041, 40.513 375.513, 40.140 396.253 C 39.772 416.688, 39.985 417.413, 46.185 416.818 L 49.500 416.500 49.773 397.575 C 49.944 385.681, 50.454 378.158, 51.145 377.325 C 51.799 376.537, 54.344 376, 57.422 376 C 60.270 376, 63.140 375.460, 63.800 374.800 C 65.602 372.998, 65.246 370.202, 63.066 369.035 C 61.058 367.961, 30.715 367.696, 28 368.729 M 81.719 369.758 C 80.844 370.725, 78.694 375.337, 76.942 380.008 C 75.189 384.679, 72.876 390.750, 71.802 393.500 C 66.312 407.554, 64.004 414.567, 64.469 415.779 C 64.806 416.657, 66.284 417.014, 68.742 416.811 C 72.071 416.535, 72.715 416.024, 74.385 412.331 C 76.504 407.645, 77.876 407.033, 86.316 407.014 C 93.524 406.997, 95.641 408.079, 96.544 412.242 C 96.933 414.034, 97.757 415.831, 98.376 416.235 C 100.315 417.502, 106.032 417.079, 106.590 415.627 C 106.880 414.871, 105.033 408.909, 102.485 402.377 C 94.446 381.760, 92.870 377.584, 91.884 374.279 C 90.225 368.725, 84.827 366.323, 81.719 369.758 M 120.804 368.704 L 115.108 369.097 114.505 373.298 C 114.173 375.609, 114.036 386.037, 114.201 396.471 C 114.558 419.125, 113.568 417.760, 129.061 416.964 C 140.919 416.355, 144.355 415.078, 147.799 410 C 150.647 405.799, 150.340 400.056, 147.082 396.587 C 144.669 394.019, 144.428 391.267, 146.372 388.473 C 150.482 382.565, 148.201 373.718, 141.800 370.740 C 138.039 368.990, 129.159 368.129, 120.804 368.704 M 158.615 369.292 C 156.998 370.474, 156.866 372.281, 157.168 389.047 C 157.482 406.502, 157.626 407.677, 159.833 410.771 C 162.929 415.112, 167.806 417, 175.922 417 C 181.509 417, 183.291 416.552, 186.833 414.255 C 192.601 410.515, 193.165 407.939, 192.803 387 L 192.500 369.500 189.284 369.189 C 185.164 368.791, 185.102 369.072, 184.765 389.839 L 184.500 406.178 181.694 408.589 C 178.301 411.505, 174.584 411.653, 170.304 409.044 C 166.380 406.651, 166.125 405.324, 165.743 385.310 C 165.584 376.956, 165.240 369.925, 164.977 369.685 C 163.536 368.367, 160.165 368.159, 158.615 369.292 M 359.135 368.721 C 346.478 371.121, 339.535 389.800, 345.634 405.043 C 347.474 409.643, 352.826 414.675, 357.711 416.398 C 366.279 419.421, 377.458 414.510, 381.329 406.021 C 384.083 399.981, 384.260 387.470, 381.685 380.797 C 378.112 371.536, 369.267 366.800, 359.135 368.721 M 469.866 368.667 C 468.917 368.920, 466.746 372.749, 464.689 377.801 C 456.325 398.341, 450.897 413.228, 451.196 414.805 C 451.911 418.578, 461 416.872, 461 412.965 C 461 408.960, 464.472 407, 471.566 407 C 479.485 407, 481.497 407.945, 482.949 412.345 C 484.841 418.079, 493 419.681, 493 414.319 C 493 411.970, 492.363 410.167, 485.993 394.500 C 484.428 390.650, 482.831 386.400, 482.445 385.055 C 481.164 380.601, 475.899 369.556, 474.689 368.787 C 473.430 367.986, 472.509 367.963, 469.866 368.667 M 501.553 369.590 C 500.176 370.966, 499.999 374.223, 500.231 393.840 L 500.500 416.500 506 417 C 509.025 417.275, 515.771 417.275, 520.990 417 C 528.711 416.593, 530.538 416.196, 530.790 414.871 C 531.458 411.363, 528.288 410, 519.464 410 C 512.189 410, 510.932 409.742, 510.035 408.066 C 509.431 406.938, 509 398.617, 509 388.101 C 509 371.298, 508.868 370, 507.066 369.035 C 504.433 367.626, 503.414 367.729, 501.553 369.590 M 204.858 372.750 C 204.536 381.244, 205.119 415.384, 205.599 416.161 C 205.885 416.622, 212.151 417, 219.524 417 C 231.420 417, 233.038 416.797, 233.895 415.196 C 235.693 411.837, 233.654 410.735, 224.917 410.344 C 212.683 409.797, 213 410.353, 213 389.427 C 213 379.932, 212.727 371.452, 212.393 370.582 C 212.005 369.569, 210.565 369, 208.393 369 C 205.164 369, 204.993 369.181, 204.858 372.750 M 242.354 370.236 C 241.233 372.050, 240.907 413.232, 242 415 C 242.723 416.171, 245.678 416.577, 255.483 416.853 C 269.963 417.261, 273 416.773, 273 414.040 C 273 411.266, 272.078 410.974, 261.952 410.537 C 251.094 410.069, 249.799 409.086, 250.702 402 C 251.541 395.421, 252.168 395, 261.122 395 C 268.286 395, 269 394.822, 269 393.035 C 269 390.352, 266.576 389.344, 259.500 389.084 C 252.618 388.832, 251.169 387.816, 250.332 382.658 C 249.883 379.890, 250.183 378.455, 251.520 376.977 C 253.058 375.279, 254.615 375, 262.572 375 C 272.121 375, 273.200 374.525, 272.221 370.750 C 271.815 369.186, 270.245 369, 257.442 369 C 247.148 369, 242.903 369.348, 242.354 370.236 M 282.872 370.654 C 281.813 371.930, 281.471 377.175, 281.374 393.634 C 281.233 417.416, 281.395 418.041, 287.270 416.346 L 290.500 415.415 290.574 395.958 C 290.661 373.327, 290.020 369, 286.584 369 C 285.297 369, 283.627 369.744, 282.872 370.654 M 301.975 371.565 C 300.508 375.425, 300.705 414.305, 302.200 415.800 C 303.743 417.343, 307.257 417.343, 308.800 415.800 C 309.479 415.121, 310 411.867, 310 408.300 C 310 403.333, 310.423 401.577, 312 400 C 315.953 396.047, 319.498 398.242, 324.609 407.809 C 328.884 415.813, 332.619 418.781, 335.184 416.216 C 336.083 415.317, 335.495 413.123, 332.680 406.862 L 329.001 398.683 330.959 395.591 C 336.744 386.454, 337.396 379.192, 332.866 374.343 C 328.598 369.774, 325.868 369, 314.025 369 C 303.057 369, 302.941 369.025, 301.975 371.565 M 124.561 376.932 C 122.367 379.357, 122.530 386.265, 124.830 388.346 C 126.339 389.712, 127.521 389.842, 131.550 389.090 C 137.852 387.912, 140.304 385.170, 138.831 380.946 C 137.610 377.443, 136.007 376.463, 130.311 375.739 C 127.133 375.335, 125.746 375.623, 124.561 376.932 M 311.522 376.976 C 309.099 379.653, 309.066 388.310, 311.468 390.965 C 313.990 393.752, 322.608 392.774, 325.750 389.344 C 328.667 386.160, 328.754 380.780, 325.931 378.150 C 322.148 374.626, 314.232 373.981, 311.522 376.976 M 356.561 378.250 C 353.973 380.847, 353.193 382.609, 352.680 387.019 C 351.973 393.085, 353.468 404.654, 355.234 406.782 C 358.872 411.165, 366.983 411.948, 370.242 408.230 C 375.540 402.186, 376.804 389.332, 372.874 381.463 C 369.229 374.163, 362.044 372.748, 356.561 378.250 M 82.706 389.540 C 81.768 392.586, 81 395.688, 81 396.433 C 81 399.111, 86.938 399.919, 89.296 397.561 C 90.547 396.310, 90.521 395.497, 89.094 391.311 C 85.992 382.209, 85.044 381.946, 82.706 389.540 M 470.204 386.262 C 469.588 387.493, 468.580 390.477, 467.965 392.893 C 466.714 397.802, 467.490 398.969, 472 398.969 C 476.823 398.969, 477.387 397.844, 475.617 391.756 C 473.640 384.955, 471.796 383.083, 470.204 386.262 M 412 393.999 C 410.388 394.380, 409.500 395.284, 409.500 396.545 C 409.500 398.304, 410.329 398.529, 417.750 398.790 C 425.938 399.079, 426 399.062, 426 396.608 C 426 395.125, 425.300 393.919, 424.250 393.596 C 422.162 392.952, 415.496 393.172, 412 393.999 M 124.035 397.934 C 122.326 401.128, 122.799 406.508, 124.961 408.465 C 127.610 410.862, 137.487 409.826, 139.004 406.993 C 140.577 404.053, 140.168 399.462, 138.171 397.655 C 135.403 395.150, 125.420 395.347, 124.035 397.934" stroke="#FFFFFF" fill="#FFFFFF" fill-rule="evenodd"/></svg>